<svg xmlns="http://www.w3.org/2000/svg" viewBox="0 0 1024 64" width="1024" height="64">

<defs>
  <filter id="paperNoise" x="0" y="0" width="100%" height="100%">
    <feTurbulence type="fractalNoise" baseFrequency="0.75" numOctaves="4" seed="17" result="noise"/>
    <feColorMatrix in="noise" type="matrix" values="0.35 0 0 0 0.55  0 0.28 0 0 0.42  0 0 0.16 0 0.16  0 0 0 0.12 0"/>
  </filter>
  <filter id="inkBleed" x="-8%" y="-8%" width="116%" height="116%">
    <feTurbulence type="fractalNoise" baseFrequency="0.08" numOctaves="2" seed="8" result="turb"/>
    <feDisplacementMap in="SourceGraphic" in2="turb" scale="1.8"/>
  </filter>
  <filter id="softPaperShadow" x="-20%" y="-20%" width="140%" height="140%">
    <feDropShadow dx="4" dy="6" stdDeviation="5" flood-color="#4A2D18" flood-opacity="0.22"/>
  </filter>
</defs>
<path d="M0 24 C45 11 69 35 108 21 C162 3 185 35 232 22 C288 7 337 27 392 18 C451 8 493 29 550 18 C598 9 653 33 704 21 C760 8 807 33 859 18 C916 1 964 29 1024 15 L1024 64 L0 64 Z" fill="#D8B982" stroke="#4A2D18" stroke-width="2"/>
<rect width="1024" height="64" filter="url(#paperNoise)" opacity="0.45"/>
</svg>
