<svg xmlns="http://www.w3.org/2000/svg" viewBox="0 0 512 512">

<defs>
  <linearGradient id="darkFill" x1="0" y1="0" x2="0" y2="1">
    <stop offset="0" stop-color="#2A2433"/><stop offset="0.55" stop-color="#11131A"/><stop offset="1" stop-color="#07080B"/>
  </linearGradient>
  <filter id="stoneNoise" x="0" y="0" width="100%" height="100%">
    <feTurbulence type="fractalNoise" baseFrequency="0.55" numOctaves="5" seed="31" result="noise"/>
    <feColorMatrix in="noise" type="matrix" values="0.12 0 0 0 0.03  0 0.12 0 0 0.035  0 0 0.16 0 0.05  0 0 0 0.25 0"/>
  </filter>
  <filter id="runeGlow" x="-50%" y="-50%" width="200%" height="200%">
    <feGaussianBlur stdDeviation="4" result="blur"/><feMerge><feMergeNode in="blur"/><feMergeNode in="SourceGraphic"/></feMerge>
  </filter>
  <filter id="metalBevel" x="-20%" y="-20%" width="140%" height="140%">
    <feDropShadow dx="0" dy="4" stdDeviation="5" flood-color="#000" flood-opacity="0.7"/>
  </filter>
</defs>
<path d="M42 8 H470 L504 42 V470 L470 504 H42 L8 470 V42 Z" fill="none" stroke="#9A8F77" stroke-width="8"/>
<path d="M72 42 H440 L470 72 V440 L440 470 H72 L42 440 V72 Z" fill="none" stroke="#5B5364" stroke-width="3"/>
<path d="M98 66 H414 L446 98 V414 L414 446 H98 L66 414 V98 Z" fill="none" stroke="#39C6FF" stroke-width="1.8" opacity="0.7" filter="url(#runeGlow)"/>
<g fill="#3B3444" stroke="#9A8F77"><path d="M42 8 L84 42 L42 84 L8 42 Z"/><path d="M470 8 L504 42 L470 84 L428 42 Z"/><path d="M42 428 L84 470 L42 504 L8 470 Z"/><path d="M470 428 L504 470 L470 504 L428 470 Z"/></g>
</svg>
