<svg xmlns="http://www.w3.org/2000/svg" viewBox="0 0 260 72" width="260" height="72">

<defs>
  <linearGradient id="darkFill" x1="0" y1="0" x2="0" y2="1">
    <stop offset="0" stop-color="#2A2433"/><stop offset="0.55" stop-color="#11131A"/><stop offset="1" stop-color="#07080B"/>
  </linearGradient>
  <filter id="stoneNoise" x="0" y="0" width="100%" height="100%">
    <feTurbulence type="fractalNoise" baseFrequency="0.55" numOctaves="5" seed="31" result="noise"/>
    <feColorMatrix in="noise" type="matrix" values="0.12 0 0 0 0.03  0 0.12 0 0 0.035  0 0 0.16 0 0.05  0 0 0 0.25 0"/>
  </filter>
  <filter id="runeGlow" x="-50%" y="-50%" width="200%" height="200%">
    <feGaussianBlur stdDeviation="4" result="blur"/><feMerge><feMergeNode in="blur"/><feMergeNode in="SourceGraphic"/></feMerge>
  </filter>
  <filter id="metalBevel" x="-20%" y="-20%" width="140%" height="140%">
    <feDropShadow dx="0" dy="4" stdDeviation="5" flood-color="#000" flood-opacity="0.7"/>
  </filter>
</defs>
<linearGradient id="btnFill" x1="0" y1="0" x2="0" y2="1"><stop offset="0" stop-color="#2A2433"/><stop offset="0.55" stop-color="#1D1A24"/><stop offset="1" stop-color="#07080B"/></linearGradient>
<path transform="translate(0 0)" d="M24 6 L236 6 L254 24 L254 48 L236 66 L24 66 L6 48 L6 24 Z" fill="url(#btnFill)" stroke="#8E82A8" stroke-width="2" filter="url(#metalBevel)"/>
<path transform="translate(0 0)" d="M34 14 L226 14 L242 28 L242 44 L226 58 L34 58 L18 44 L18 28 Z" fill="none" stroke="#39C6FF" stroke-width="1.5" opacity="0.92" filter="url(#runeGlow)"/>
<path transform="translate(0 0)" d="M52 36 H208" stroke="#D6B76A" stroke-width="1" opacity="0.35"/>
</svg>
