<svg xmlns="http://www.w3.org/2000/svg" viewBox="0 0 760 520" width="760" height="520">

<defs>
  <linearGradient id="darkFill" x1="0" y1="0" x2="0" y2="1">
    <stop offset="0" stop-color="#2A2433"/><stop offset="0.55" stop-color="#11131A"/><stop offset="1" stop-color="#07080B"/>
  </linearGradient>
  <filter id="stoneNoise" x="0" y="0" width="100%" height="100%">
    <feTurbulence type="fractalNoise" baseFrequency="0.55" numOctaves="5" seed="31" result="noise"/>
    <feColorMatrix in="noise" type="matrix" values="0.12 0 0 0 0.03  0 0.12 0 0 0.035  0 0 0.16 0 0.05  0 0 0 0.25 0"/>
  </filter>
  <filter id="runeGlow" x="-50%" y="-50%" width="200%" height="200%">
    <feGaussianBlur stdDeviation="4" result="blur"/><feMerge><feMergeNode in="blur"/><feMergeNode in="SourceGraphic"/></feMerge>
  </filter>
  <filter id="metalBevel" x="-20%" y="-20%" width="140%" height="140%">
    <feDropShadow dx="0" dy="4" stdDeviation="5" flood-color="#000" flood-opacity="0.7"/>
  </filter>
</defs>
<path d="M48 16 H712 L744 48 V472 L712 504 H48 L16 472 V48 Z" fill="url(#darkFill)" stroke="#9A8F77" stroke-width="3" filter="url(#metalBevel)"/>
<path d="M82 48 H678 L712 82 V438 L678 472 H82 L48 438 V82 Z" fill="#090A0D" stroke="#5B5364" stroke-width="2"/>
<path d="M96 64 H664 L696 96 V424 L664 456 H96 L64 424 V96 Z" fill="none" stroke="#39C6FF" stroke-width="1.4" opacity="0.55" filter="url(#runeGlow)"/>
<g fill="#3B3444" stroke="#9A8F77" stroke-width="1.5"><path d="M16 48 L48 16 L68 48 L48 68 Z"/><path d="M744 48 L712 16 L692 48 L712 68 Z"/><path d="M16 472 L48 504 L68 472 L48 452 Z"/><path d="M744 472 L712 504 L692 472 L712 452 Z"/></g>
</svg>
