<svg xmlns="http://www.w3.org/2000/svg" viewBox="0 0 512 512">

<defs>
  <filter id="paperNoise" x="0" y="0" width="100%" height="100%">
    <feTurbulence type="fractalNoise" baseFrequency="0.75" numOctaves="4" seed="17" result="noise"/>
    <feColorMatrix in="noise" type="matrix" values="0.35 0 0 0 0.55  0 0.28 0 0 0.42  0 0 0.16 0 0.16  0 0 0 0.12 0"/>
  </filter>
  <filter id="inkBleed" x="-8%" y="-8%" width="116%" height="116%">
    <feTurbulence type="fractalNoise" baseFrequency="0.08" numOctaves="2" seed="8" result="turb"/>
    <feDisplacementMap in="SourceGraphic" in2="turb" scale="1.8"/>
  </filter>
  <filter id="softPaperShadow" x="-20%" y="-20%" width="140%" height="140%">
    <feDropShadow dx="4" dy="6" stdDeviation="5" flood-color="#4A2D18" flood-opacity="0.22"/>
  </filter>
</defs>
<path d="M28 26 C116 15 204 37 256 26 C333 12 427 18 485 31 C498 121 477 197 490 260 C501 334 485 417 474 486 C378 498 314 475 250 489 C172 502 94 490 28 477 C13 382 36 311 24 252 C10 174 19 88 28 26 Z" fill="none" stroke="#2B1A0F" stroke-width="8" filter="url(#inkBleed)"/>
<path d="M48 50 C128 44 204 58 263 47 C329 36 421 43 462 54 C468 126 456 203 466 263 C473 325 459 407 450 461 C379 469 315 454 252 464 C181 473 109 463 52 454 C45 379 56 310 48 253 C38 183 44 109 48 50 Z" fill="none" stroke="#6E4A24" stroke-width="2" opacity="0.65"/>
</svg>
