<svg xmlns="http://www.w3.org/2000/svg" viewBox="0 0 240 64" width="240" height="64">

<defs>
  <filter id="paperNoise" x="0" y="0" width="100%" height="100%">
    <feTurbulence type="fractalNoise" baseFrequency="0.75" numOctaves="4" seed="17" result="noise"/>
    <feColorMatrix in="noise" type="matrix" values="0.35 0 0 0 0.55  0 0.28 0 0 0.42  0 0 0.16 0 0.16  0 0 0 0.12 0"/>
  </filter>
  <filter id="inkBleed" x="-8%" y="-8%" width="116%" height="116%">
    <feTurbulence type="fractalNoise" baseFrequency="0.08" numOctaves="2" seed="8" result="turb"/>
    <feDisplacementMap in="SourceGraphic" in2="turb" scale="1.8"/>
  </filter>
  <filter id="softPaperShadow" x="-20%" y="-20%" width="140%" height="140%">
    <feDropShadow dx="4" dy="6" stdDeviation="5" flood-color="#4A2D18" flood-opacity="0.22"/>
  </filter>
</defs>
<path transform="translate(0 2)" d="M12 8 C45 5 90 9 128 7 C170 5 204 6 228 10 C232 22 231 42 226 55 C180 58 128 56 82 58 C48 60 22 56 10 52 C7 38 8 22 12 8 Z" fill="#CFAE76" stroke="#2B1A0F" stroke-width="2.5" filter="url(#softPaperShadow)"/>
<path transform="translate(0 2)" d="M18 14 C70 11 150 13 222 15" stroke="#4A2D18" stroke-width="1" opacity="0.38" fill="none"/>
<rect width="240" height="64" filter="url(#paperNoise)" opacity="0.42"/>
</svg>
