<svg xmlns="http://www.w3.org/2000/svg" viewBox="0 0 720 480" width="720" height="480">

<defs>
  <filter id="paperNoise" x="0" y="0" width="100%" height="100%">
    <feTurbulence type="fractalNoise" baseFrequency="0.75" numOctaves="4" seed="17" result="noise"/>
    <feColorMatrix in="noise" type="matrix" values="0.35 0 0 0 0.55  0 0.28 0 0 0.42  0 0 0.16 0 0.16  0 0 0 0.12 0"/>
  </filter>
  <filter id="inkBleed" x="-8%" y="-8%" width="116%" height="116%">
    <feTurbulence type="fractalNoise" baseFrequency="0.08" numOctaves="2" seed="8" result="turb"/>
    <feDisplacementMap in="SourceGraphic" in2="turb" scale="1.8"/>
  </filter>
  <filter id="softPaperShadow" x="-20%" y="-20%" width="140%" height="140%">
    <feDropShadow dx="4" dy="6" stdDeviation="5" flood-color="#4A2D18" flood-opacity="0.22"/>
  </filter>
</defs>
<path d="M34 24 C132 12 238 31 346 21 C474 10 602 19 686 31 C704 132 692 247 701 351 C629 460 475 449 358 459 C231 469 103 452 26 435 C9 332 24 224 18 126 C15 80 21 48 34 24 Z" fill="#D8B982" stroke="#2B1A0F" stroke-width="4" filter="url(#softPaperShadow)"/>
<path d="M52 48 C160 37 283 52 366 42 C489 33 584 40 665 52 M46 425 C160 450 298 430 397 440 C516 451 612 431 674 414" fill="none" stroke="#6E4A24" stroke-width="1.4" opacity="0.35" filter="url(#inkBleed)"/>
<rect width="720" height="480" opacity="0.7" filter="url(#paperNoise)"/>
</svg>
