<svg xmlns="http://www.w3.org/2000/svg" width="1600" height="1180" viewBox="0 0 1600 1180">
  <defs>
    <style>
      .serif { font-family: Georgia, 'Times New Roman', serif; }
      .mono { font-family: 'Cascadia Mono', Consolas, monospace; }
      .muted { fill: #b8c7d3; }
      .text { fill: #eef4f8; }
      .gold { fill: #f5d547; }
      .panel { fill: #19222b; stroke: #324252; stroke-width: 2; }
      .field { fill: #0b0f13; stroke: #53606d; stroke-width: 2; }
      .button { fill: rgba(245,213,71,0.12); stroke: #f5d547; stroke-width: 1.5; }
      .ghost { fill: none; stroke: #556575; stroke-width: 1.5; }
    </style>
  </defs>

  <rect width="1600" height="1180" fill="#10161d"/>
  <rect x="24" y="22" width="1552" height="1128" rx="26" fill="#131b23" stroke="#324252" stroke-width="2"/>

  <text x="52" y="64" class="mono gold" font-size="16" font-weight="700" letter-spacing="2">MILESTONE 12</text>
  <text x="52" y="106" class="serif text" font-size="42" font-weight="700">ACS Construction Set MVP</text>

  <g class="mono" font-size="16" font-weight="700">
    <rect x="1048" y="48" width="122" height="42" rx="21" class="ghost"/>
    <text x="1070" y="75" class="text">Back To Play</text>
    <rect x="1184" y="48" width="110" height="42" rx="21" class="button"/>
    <text x="1204" y="75" class="text">Save Draft</text>
    <rect x="1308" y="48" width="116" height="42" rx="21" class="ghost"/>
    <text x="1328" y="75" class="text">Reset Draft</text>
    <rect x="1438" y="48" width="118" height="42" rx="21" class="button"/>
    <text x="1455" y="75" class="text">Playtest</text>
  </g>

  <rect x="52" y="136" width="1126" height="956" rx="22" class="panel"/>
  <rect x="74" y="162" width="1082" height="108" rx="16" fill="#10161d" stroke="#3d4b58"/>

  <g class="serif muted" font-size="18">
    <text x="92" y="194">Map</text>
    <text x="276" y="194">Mode</text>
    <text x="460" y="194">Move Entity</text>
    <text x="668" y="194">Add Definition</text>
  </g>
  <g class="mono" font-size="15" font-weight="700">
    <rect x="92" y="206" width="160" height="38" rx="8" class="field"/>
    <text x="110" y="231" class="text">Inner Shrine</text>
    <rect x="276" y="206" width="150" height="38" rx="8" class="field"/>
    <text x="294" y="231" class="text">Entities</text>
    <rect x="460" y="206" width="180" height="38" rx="8" class="field"/>
    <text x="478" y="231" class="text">entity_wolf</text>
    <rect x="668" y="206" width="180" height="38" rx="8" class="field"/>
    <text x="686" y="231" class="text">Shrine Wolf</text>
    <rect x="874" y="202" width="112" height="44" rx="22" class="button"/>
    <text x="896" y="230" class="text">Place New</text>
  </g>

  <rect x="74" y="292" width="1082" height="82" rx="16" fill="#10161d" stroke="#3d4b58"/>
  <rect x="94" y="310" width="52" height="52" rx="10" fill="#bf4b45" stroke="#f2c5c2" stroke-width="2"/>
  <text x="166" y="332" class="serif muted" font-size="17">Active Brush</text>
  <text x="166" y="358" class="mono text" font-size="22" font-weight="700">Place Shrine Wolf</text>

  <g transform="translate(82,404)" class="mono" font-size="14" text-anchor="middle" font-weight="700">
    <g>
      <rect x="0" y="0" width="170" height="82" rx="10" fill="#68737d" stroke="#8895a0"/><text x="85" y="48" class="text">stone</text>
      <rect x="180" y="0" width="170" height="82" rx="10" fill="#68737d" stroke="#8895a0"/><text x="265" y="48" class="text">stone</text>
      <rect x="360" y="0" width="170" height="82" rx="10" fill="#68737d" stroke="#8895a0"/><text x="445" y="48" class="text">stone</text>
      <rect x="540" y="0" width="170" height="82" rx="10" fill="#68737d" stroke="#8895a0"/><text x="625" y="48" class="text">stone</text>
      <rect x="720" y="0" width="170" height="82" rx="10" fill="#68737d" stroke="#8895a0"/><text x="805" y="48" class="text">stone</text>
      <rect x="900" y="0" width="170" height="82" rx="10" fill="#68737d" stroke="#8895a0"/><text x="985" y="48" class="text">stone</text>
    </g>
    <g transform="translate(0,92)">
      <rect x="0" y="0" width="170" height="82" rx="10" fill="#68737d" stroke="#8895a0"/><text x="85" y="48" class="text">stone</text>
      <rect x="180" y="0" width="170" height="82" rx="10" fill="#8b8f94" stroke="#b7bec5"/><text x="265" y="48" fill="#10161d">floor</text>
      <rect x="360" y="0" width="170" height="82" rx="10" fill="#8b8f94" stroke="#b7bec5"/><text x="445" y="48" fill="#10161d">floor</text>
      <rect x="540" y="0" width="170" height="82" rx="10" fill="#8b8f94" stroke="#b7bec5"/><text x="625" y="48" fill="#10161d">floor</text>
      <rect x="720" y="0" width="170" height="82" rx="10" fill="#8b8f94" stroke="#b7bec5"/><text x="805" y="48" fill="#10161d">floor</text>
      <rect x="900" y="0" width="170" height="82" rx="10" fill="#68737d" stroke="#8895a0"/><text x="985" y="48" class="text">stone</text>
    </g>
    <g transform="translate(0,184)">
      <rect x="0" y="0" width="170" height="82" rx="10" fill="#68737d" stroke="#8895a0"/><text x="85" y="48" class="text">stone</text>
      <rect x="180" y="0" width="170" height="82" rx="10" fill="#8b8f94" stroke="#b7bec5"/><text x="265" y="48" fill="#10161d">floor</text>
      <rect x="360" y="0" width="170" height="82" rx="10" fill="#8b8f94" stroke="#b7bec5"/><text x="445" y="48" fill="#10161d">floor</text>
      <rect x="540" y="0" width="170" height="82" rx="10" fill="#8b8f94" stroke="#b7bec5"/><text x="625" y="48" fill="#10161d">floor</text>
      <rect x="720" y="0" width="170" height="82" rx="10" fill="#c4a85a" stroke="#f0d08e" stroke-width="3"/><text x="805" y="48" fill="#10161d">altar</text>
      <rect x="900" y="0" width="170" height="82" rx="10" fill="#68737d" stroke="#8895a0"/><text x="985" y="48" class="text">stone</text>
    </g>
    <g transform="translate(0,276)">
      <rect x="0" y="0" width="170" height="82" rx="10" fill="#68737d" stroke="#8895a0"/><text x="85" y="48" class="text">stone</text>
      <rect x="180" y="0" width="170" height="82" rx="10" fill="#8b8f94" stroke="#b7bec5"/><text x="265" y="48" fill="#10161d">floor</text>
      <rect x="360" y="0" width="170" height="82" rx="10" fill="#8b8f94" stroke="#b7bec5"/><text x="445" y="48" fill="#10161d">floor</text>
      <rect x="540" y="0" width="170" height="82" rx="10" fill="#8b8f94" stroke="#b7bec5"/><text x="625" y="48" fill="#10161d">floor</text>
      <rect x="720" y="0" width="170" height="82" rx="10" fill="#8b8f94" stroke="#b7bec5"/><text x="805" y="48" fill="#10161d">floor</text>
      <rect x="900" y="0" width="170" height="82" rx="10" fill="#68737d" stroke="#8895a0"/><text x="985" y="48" class="text">stone</text>
    </g>
    <g transform="translate(0,368)">
      <rect x="0" y="0" width="170" height="82" rx="10" fill="#68737d" stroke="#8895a0"/><text x="85" y="48" class="text">stone</text>
      <rect x="180" y="0" width="170" height="82" rx="10" fill="#8b8f94" stroke="#b7bec5"/><text x="265" y="48" fill="#10161d">floor</text>
      <rect x="360" y="0" width="170" height="82" rx="10" fill="#8b8f94" stroke="#b7bec5"/><text x="445" y="48" fill="#10161d">floor</text>
      <rect x="540" y="0" width="170" height="82" rx="10" fill="#8b8f94" stroke="#b7bec5"/><text x="625" y="48" fill="#10161d">floor</text>
      <rect x="720" y="0" width="170" height="82" rx="10" fill="#8b8f94" stroke="#b7bec5"/><text x="805" y="48" fill="#10161d">floor</text>
      <rect x="900" y="0" width="170" height="82" rx="10" fill="#68737d" stroke="#8895a0"/><text x="985" y="48" class="text">stone</text>
    </g>
    <g transform="translate(0,460)">
      <rect x="0" y="0" width="170" height="82" rx="10" fill="#68737d" stroke="#8895a0"/><text x="85" y="48" class="text">stone</text>
      <rect x="180" y="0" width="170" height="82" rx="10" fill="#704b2e" stroke="#b18555" stroke-width="3"/><text x="265" y="48" class="text">door</text>
      <rect x="360" y="0" width="170" height="82" rx="10" fill="#68737d" stroke="#8895a0"/><text x="445" y="48" class="text">stone</text>
      <rect x="540" y="0" width="170" height="82" rx="10" fill="#68737d" stroke="#8895a0"/><text x="625" y="48" class="text">stone</text>
      <rect x="720" y="0" width="170" height="82" rx="10" fill="#68737d" stroke="#8895a0"/><text x="805" y="48" class="text">stone</text>
      <rect x="900" y="0" width="170" height="82" rx="10" fill="#68737d" stroke="#8895a0"/><text x="985" y="48" class="text">stone</text>
    </g>
  </g>

  <text x="78" y="1014" class="serif muted" font-size="20">Placing Shrine Wolf on Inner Shrine. Placement: multiple. Click a cell to add an instance.</text>

  <g transform="translate(1200,136)">
    <rect x="0" y="0" width="342" height="286" rx="18" class="panel"/>
    <text x="20" y="38" class="serif text" font-size="24" font-weight="700">Metadata</text>
    <text x="20" y="72" class="serif muted" font-size="16">Title</text>
    <rect x="20" y="84" width="302" height="38" rx="8" class="field"/>
    <text x="34" y="109" class="mono text" font-size="13">Oracle of the Solar Seal</text>
    <text x="20" y="154" class="serif muted" font-size="16">Description</text>
    <rect x="20" y="166" width="302" height="86" rx="8" class="field"/>
    <text x="34" y="192" class="serif text" font-size="15">A tiny milestone slice with</text>
    <text x="34" y="214" class="serif text" font-size="15">movement, dialogue, triggers,</text>
    <text x="34" y="236" class="serif text" font-size="15">enemy behavior, and map travel.</text>
  </g>

  <g transform="translate(1200,444)">
    <rect x="0" y="0" width="342" height="276" rx="18" class="panel"/>
    <text x="20" y="38" class="serif text" font-size="24" font-weight="700">Project &amp; Release</text>
    <text x="20" y="74" class="serif muted" font-size="16">Connected to local API as Local Designer.</text>
    <text x="20" y="106" class="serif muted" font-size="16">No project linked yet.</text>
    <text x="20" y="138" class="serif muted" font-size="16">No server validation run yet.</text>
    <g class="mono" font-size="13" font-weight="700">
      <rect x="20" y="162" width="126" height="36" rx="18" class="ghost"/><text x="34" y="185" class="text">Validate Draft</text>
      <rect x="158" y="162" width="134" height="36" rx="18" class="button"/><text x="174" y="185" class="text">Create Project</text>
      <rect x="20" y="208" width="120" height="36" rx="18" class="button"/><text x="38" y="231" class="text">Save Project</text>
      <rect x="152" y="208" width="138" height="36" rx="18" class="button"/><text x="168" y="231" class="text">Publish Release</text>
    </g>
  </g>

  <g transform="translate(1200,742)">
    <rect x="0" y="0" width="342" height="126" rx="18" class="panel"/>
    <text x="20" y="38" class="serif text" font-size="24" font-weight="700">Validation</text>
    <text x="20" y="76" class="serif muted" font-size="16">Draft is publishable with 0 warnings.</text>
    <text x="20" y="104" class="serif muted" font-size="16">No validation issues.</text>
  </g>

  <g transform="translate(1200,890)">
    <rect x="0" y="0" width="342" height="142" rx="18" class="panel"/>
    <text x="20" y="38" class="serif text" font-size="24" font-weight="700">Entities On Map</text>
    <text x="20" y="78" class="serif muted" font-size="16">entity_wolf: Shrine Wolf at (2, 2)</text>
    <text x="20" y="106" class="serif muted" font-size="16">entity_wolf_1: Shrine Wolf at (3, 2)</text>
  </g>
</svg>
