<svg width="1400" height="940" viewBox="0 0 1400 940" fill="none" xmlns="http://www.w3.org/2000/svg">
  <defs>
    <linearGradient id="bg3" x1="700" y1="0" x2="700" y2="940" gradientUnits="userSpaceOnUse">
      <stop stop-color="#2B3948"/>
      <stop offset="0.62" stop-color="#10161D"/>
    </linearGradient>
    <linearGradient id="panel3" x1="0" y1="0" x2="0" y2="1">
      <stop stop-color="#1F2A34" stop-opacity="0.95"/>
      <stop offset="1" stop-color="#141B22" stop-opacity="1"/>
    </linearGradient>
    <filter id="shadow3" x="-20%" y="-20%" width="140%" height="140%">
      <feDropShadow dx="0" dy="18" stdDeviation="24" flood-color="#000" flood-opacity="0.35"/>
    </filter>
  </defs>
  <rect width="1400" height="940" fill="url(#bg3)"/>
  <text x="72" y="78" fill="#F5D547" font-size="18" font-family="Georgia, serif" letter-spacing="4">EDITOR MVP</text>
  <text x="72" y="122" fill="#E9EEF2" font-size="40" font-family="Georgia, serif">Construction Set Layout</text>

  <g filter="url(#shadow3)">
    <rect x="64" y="156" width="896" height="708" rx="22" fill="url(#panel3)" stroke="#324252" stroke-width="2"/>
    <rect x="94" y="188" width="836" height="88" rx="16" fill="#162029" stroke="#324252"/>

    <text x="120" y="224" fill="#9FB0BE" font-size="14" font-family="Georgia, serif">Map</text>
    <rect x="120" y="236" width="150" height="34" rx="10" fill="#090B0F" stroke="rgba(255,255,255,0.18)"/>
    <text x="142" y="258" fill="#E9EEF2" font-size="15" font-family="Cascadia Mono, monospace">Sun Meadow</text>

    <text x="300" y="224" fill="#9FB0BE" font-size="14" font-family="Georgia, serif">Mode</text>
    <rect x="300" y="236" width="130" height="34" rx="10" fill="#090B0F" stroke="rgba(255,255,255,0.18)"/>
    <text x="329" y="258" fill="#E9EEF2" font-size="15" font-family="Cascadia Mono, monospace">Tiles</text>

    <text x="460" y="224" fill="#9FB0BE" font-size="14" font-family="Georgia, serif">Tile</text>
    <rect x="460" y="236" width="130" height="34" rx="10" fill="#090B0F" stroke="rgba(255,255,255,0.18)"/>
    <text x="496" y="258" fill="#E9EEF2" font-size="15" font-family="Cascadia Mono, monospace">grass</text>

    <rect x="620" y="236" width="118" height="34" rx="17" fill="rgba(245,213,71,0.12)" stroke="rgba(245,213,71,0.65)"/>
    <text x="643" y="258" fill="#E9EEF2" font-size="15" font-family="Cascadia Mono, monospace">Save Draft</text>
    <rect x="752" y="236" width="132" height="34" rx="17" fill="transparent" stroke="rgba(255,255,255,0.22)"/>
    <text x="771" y="258" fill="#E9EEF2" font-size="15" font-family="Cascadia Mono, monospace">Playtest Draft</text>

    <g transform="translate(98 304)">
      <rect x="0" y="0" width="96" height="72" rx="10" fill="#497C4C" stroke="rgba(255,255,255,0.12)"/>
      <rect x="102" y="0" width="96" height="72" rx="10" fill="#497C4C" stroke="rgba(255,255,255,0.12)"/>
      <rect x="204" y="0" width="96" height="72" rx="10" fill="#2D5132" stroke="rgba(255,255,255,0.12)"/>
      <rect x="306" y="0" width="96" height="72" rx="10" fill="#497C4C" stroke="rgba(255,255,255,0.12)"/>
      <rect x="408" y="0" width="96" height="72" rx="10" fill="#497C4C" stroke="rgba(255,255,255,0.12)"/>
      <rect x="510" y="0" width="96" height="72" rx="10" fill="#497C4C" stroke="rgba(255,255,255,0.12)"/>
      <rect x="612" y="0" width="96" height="72" rx="10" fill="#497C4C" stroke="rgba(255,255,255,0.12)"/>

      <rect x="0" y="78" width="96" height="72" rx="10" fill="#497C4C" stroke="rgba(255,255,255,0.12)"/>
      <rect x="102" y="78" width="96" height="72" rx="10" fill="#A58258" stroke="rgba(255,255,255,0.12)"/>
      <rect x="204" y="78" width="96" height="72" rx="10" fill="#A58258" stroke="rgba(255,255,255,0.12)"/>
      <rect x="306" y="78" width="96" height="72" rx="10" fill="#A58258" stroke="rgba(255,255,255,0.12)"/>
      <rect x="408" y="78" width="96" height="72" rx="10" fill="#497C4C" stroke="rgba(255,255,255,0.12)"/>
      <rect x="510" y="78" width="96" height="72" rx="10" fill="#497C4C" stroke="rgba(255,255,255,0.12)"/>
      <rect x="612" y="78" width="96" height="72" rx="10" fill="#497C4C" stroke="rgba(255,255,255,0.12)"/>

      <rect x="0" y="156" width="96" height="72" rx="10" fill="#497C4C" stroke="rgba(255,255,255,0.12)"/>
      <rect x="102" y="156" width="96" height="72" rx="10" fill="#A58258" stroke="rgba(255,255,255,0.12)"/>
      <rect x="204" y="156" width="96" height="72" rx="10" fill="#497C4C" stroke="rgba(255,255,255,0.12)"/>
      <rect x="306" y="156" width="96" height="72" rx="10" fill="#A58258" stroke="rgba(255,255,255,0.12)"/>
      <rect x="408" y="156" width="96" height="72" rx="10" fill="#497C4C" stroke="rgba(255,255,255,0.12)"/>
      <rect x="510" y="156" width="96" height="72" rx="10" fill="#497C4C" stroke="rgba(255,255,255,0.12)"/>
      <rect x="612" y="156" width="96" height="72" rx="10" fill="#497C4C" stroke="rgba(255,255,255,0.12)"/>

      <rect x="0" y="234" width="96" height="72" rx="10" fill="#497C4C" stroke="rgba(255,255,255,0.12)"/>
      <rect x="102" y="234" width="96" height="72" rx="10" fill="#A58258" stroke="rgba(255,255,255,0.12)"/>
      <rect x="204" y="234" width="96" height="72" rx="10" fill="#497C4C" stroke="rgba(255,255,255,0.12)"/>
      <rect x="306" y="234" width="96" height="72" rx="10" fill="#A58258" stroke="rgba(255,255,255,0.12)"/>
      <rect x="408" y="234" width="96" height="72" rx="10" fill="#497C4C" stroke="rgba(255,255,255,0.12)"/>
      <rect x="510" y="234" width="96" height="72" rx="10" fill="#497C4C" stroke="rgba(255,255,255,0.12)"/>
      <rect x="612" y="234" width="96" height="72" rx="10" fill="#2D5132" stroke="rgba(255,255,255,0.12)"/>

      <rect x="0" y="312" width="96" height="72" rx="10" fill="#497C4C" stroke="rgba(255,255,255,0.12)"/>
      <rect x="102" y="312" width="96" height="72" rx="10" fill="#A58258" stroke="rgba(255,255,255,0.12)"/>
      <rect x="204" y="312" width="96" height="72" rx="10" fill="#497C4C" stroke="rgba(255,255,255,0.12)"/>
      <rect x="306" y="312" width="96" height="72" rx="10" fill="#A58258" stroke="rgba(255,255,255,0.12)"/>
      <rect x="408" y="312" width="96" height="72" rx="10" fill="#A58258" stroke="rgba(255,255,255,0.12)"/>
      <rect x="510" y="312" width="96" height="72" rx="10" fill="#A58258" stroke="rgba(255,255,255,0.12)"/>
      <rect x="612" y="312" width="96" height="72" rx="10" fill="#A58258" stroke="rgba(255,255,255,0.12)"/>

      <rect x="0" y="390" width="96" height="72" rx="10" fill="#497C4C" stroke="rgba(255,255,255,0.12)"/>
      <rect x="102" y="390" width="96" height="72" rx="10" fill="#A58258" stroke="rgba(255,255,255,0.12)"/>
      <rect x="204" y="390" width="96" height="72" rx="10" fill="#A58258" stroke="#F5D547" stroke-width="3"/>
      <rect x="306" y="390" width="96" height="72" rx="10" fill="#A58258" stroke="rgba(255,255,255,0.12)"/>
      <rect x="408" y="390" width="96" height="72" rx="10" fill="#A58258" stroke="rgba(255,255,255,0.12)"/>
      <rect x="510" y="390" width="96" height="72" rx="10" fill="#A58258" stroke="rgba(255,255,255,0.12)"/>
      <rect x="612" y="390" width="96" height="72" rx="10" fill="#704B2E" stroke="rgba(255,255,255,0.12)"/>

      <text x="245" y="436" fill="#FFFFFF" font-size="15" font-family="Cascadia Mono, monospace">grass</text>
      <rect x="322" y="161" width="56" height="24" rx="12" fill="rgba(0,0,0,0.4)"/>
      <text x="335" y="177" fill="#FFFFFF" font-size="12" font-family="Cascadia Mono, monospace">ORAC</text>
    </g>

    <text x="108" y="810" fill="#9FB0BE" font-size="16" font-family="Georgia, serif">Painting tiles on Sun Meadow. Selected tile: grass.</text>
  </g>

  <g filter="url(#shadow3)">
    <rect x="986" y="156" width="350" height="708" rx="22" fill="url(#panel3)" stroke="#324252" stroke-width="2"/>

    <text x="1018" y="212" fill="#E9EEF2" font-size="22" font-family="Georgia, serif">Metadata</text>
    <text x="1018" y="246" fill="#9FB0BE" font-size="14" font-family="Georgia, serif">Title</text>
    <rect x="1018" y="258" width="286" height="40" rx="10" fill="#090B0F" stroke="rgba(255,255,255,0.18)"/>
    <text x="1034" y="283" fill="#E9EEF2" font-size="15" font-family="Cascadia Mono, monospace">Oracle of the Solar Seal</text>
    <text x="1018" y="334" fill="#9FB0BE" font-size="14" font-family="Georgia, serif">Description</text>
    <rect x="1018" y="346" width="286" height="98" rx="10" fill="#090B0F" stroke="rgba(255,255,255,0.18)"/>
    <text x="1034" y="372" fill="#E9EEF2" font-size="14" font-family="Georgia, serif">A tiny milestone slice with movement,</text>
    <text x="1034" y="394" fill="#E9EEF2" font-size="14" font-family="Georgia, serif">dialogue, triggers, enemy behavior,</text>
    <text x="1034" y="416" fill="#E9EEF2" font-size="14" font-family="Georgia, serif">and map travel.</text>
    <text x="1018" y="474" fill="#9FB0BE" font-size="15" font-family="Georgia, serif">Loaded local draft from 4/13/2026, 8:35 PM.</text>

    <text x="1018" y="548" fill="#E9EEF2" font-size="22" font-family="Georgia, serif">Validation</text>
    <text x="1018" y="584" fill="#9FB0BE" font-size="16" font-family="Georgia, serif">No validation issues.</text>

    <text x="1018" y="656" fill="#E9EEF2" font-size="22" font-family="Georgia, serif">Entities On Map</text>
    <text x="1018" y="692" fill="#9FB0BE" font-size="16" font-family="Georgia, serif">entity_oracle: Oracle at (3, 2)</text>
    <text x="1018" y="720" fill="#9FB0BE" font-size="16" font-family="Georgia, serif">entity_wolf: Shrine Wolf at (5, 4)</text>

    <text x="1018" y="794" fill="#F5D547" font-size="18" font-family="Georgia, serif">Guide Focus</text>
    <text x="1018" y="824" fill="#9FB0BE" font-size="16" font-family="Georgia, serif">This view highlights the map grid, tile</text>
    <text x="1018" y="850" fill="#9FB0BE" font-size="16" font-family="Georgia, serif">palette, metadata panel, validation,</text>
    <text x="1018" y="876" fill="#9FB0BE" font-size="16" font-family="Georgia, serif">and entity list used in the guide.</text>
  </g>
</svg>
