<svg xmlns="http://www.w3.org/2000/svg" width="1600" height="1180" viewBox="0 0 1600 1180">
  <defs>
    <style>
      .serif { font-family: Georgia, 'Times New Roman', serif; }
      .mono { font-family: 'Cascadia Mono', Consolas, monospace; }
      .muted { fill: #b8c7d3; }
      .text { fill: #eef4f8; }
      .gold { fill: #f5d547; }
      .panel { fill: #19222b; stroke: #324252; stroke-width: 2; }
      .field { fill: #0b0f13; stroke: #53606d; stroke-width: 2; }
      .button { fill: #332f18; stroke: #f5d547; stroke-width: 1.5; }
      .ghost { fill: none; stroke: #556575; stroke-width: 1.5; }
      .node { fill: #10161d; stroke: #53606d; stroke-width: 1.5; }
      .nodeActive { fill: #332f18; stroke: #f5d547; stroke-width: 1.8; }
      .cellText { font-family: 'Cascadia Mono', Consolas, monospace; font-size: 11px; font-weight: 700; }
    </style>
  </defs>

  <rect width="1600" height="1180" fill="#10161d"/>
  <rect x="24" y="22" width="1552" height="1128" rx="26" fill="#131b23" stroke="#324252" stroke-width="2"/>

  <text x="52" y="64" class="mono gold" font-size="16" font-weight="700" letter-spacing="2">MILESTONE 16</text>
  <text x="52" y="106" class="serif text" font-size="42" font-weight="700">ACS Construction Set MVP</text>

  <g class="mono" font-size="14" font-weight="700">
    <rect x="1048" y="48" width="124" height="42" rx="21" class="ghost"/>
    <text x="1070" y="75" class="text">Back To Play</text>
    <rect x="1188" y="48" width="108" height="42" rx="21" class="button"/>
    <text x="1208" y="75" class="text">Save Draft</text>
    <rect x="1312" y="48" width="112" height="42" rx="21" class="ghost"/>
    <text x="1331" y="75" class="text">Reset</text>
    <rect x="1438" y="48" width="118" height="42" rx="21" class="button"/>
    <text x="1457" y="75" class="text">Playtest</text>
  </g>

  <g transform="translate(52,142)">
    <rect x="0" y="0" width="160" height="946" rx="20" class="panel"/>
    <text x="18" y="38" class="mono gold" font-size="13" font-weight="700">EDIT FLOW</text>
    <g class="mono" font-size="13" font-weight="700">
      <rect x="18" y="64" width="124" height="42" rx="12" class="node"/><text x="32" y="91" class="text">1 Adventure</text>
      <rect x="18" y="118" width="124" height="42" rx="12" class="nodeActive"/><text x="32" y="145" class="text">2 Atlas</text>
      <rect x="18" y="172" width="124" height="42" rx="12" class="node"/><text x="32" y="199" class="text">3 Map</text>
      <rect x="18" y="226" width="124" height="42" rx="12" class="node"/><text x="32" y="253" class="text">4 Libraries</text>
      <rect x="18" y="280" width="124" height="42" rx="12" class="node"/><text x="32" y="307" class="text">5 Logic</text>
      <rect x="18" y="334" width="124" height="42" rx="12" class="node"/><text x="32" y="361" class="text">6 Publish</text>
    </g>
  </g>

  <g transform="translate(230,142)">
    <rect x="0" y="0" width="300" height="300" rx="20" class="panel"/>
    <text x="20" y="34" class="mono gold" font-size="13" font-weight="700">ADVENTURE SETUP</text>
    <text x="20" y="64" class="serif text" font-size="24" font-weight="700">Game Identity</text>
    <text x="20" y="98" class="serif muted" font-size="15">Title</text>
    <rect x="20" y="110" width="260" height="38" rx="8" class="field"/>
    <text x="34" y="135" class="mono text" font-size="12">Oracle of the Solar Seal</text>
    <text x="20" y="178" class="serif muted" font-size="15">Description</text>
    <rect x="20" y="190" width="260" height="74" rx="8" class="field"/>
    <text x="34" y="216" class="serif text" font-size="14">Adventure-wide metadata</text>
    <text x="34" y="238" class="serif text" font-size="14">separate from map editing.</text>

    <rect x="0" y="324" width="300" height="506" rx="20" class="panel"/>
    <text x="20" y="358" class="mono gold" font-size="13" font-weight="700">WORLD ATLAS</text>
    <text x="20" y="388" class="serif text" font-size="24" font-weight="700">Regions &amp; Maps</text>
    <rect x="20" y="412" width="260" height="38" rx="10" class="nodeActive"/>
    <text x="38" y="437" class="mono text" font-size="13">Adventure Package</text>
    <path d="M42 450 V518" stroke="#f5d547" stroke-width="2"/>
    <rect x="58" y="464" width="196" height="34" rx="10" class="node"/>
    <text x="74" y="486" class="mono muted" font-size="12">Regions</text>
    <rect x="58" y="510" width="196" height="34" rx="10" class="nodeActive"/>
    <text x="74" y="532" class="mono text" font-size="12">Maps</text>
    <rect x="58" y="556" width="196" height="34" rx="10" class="node"/>
    <text x="74" y="578" class="mono muted" font-size="12">Tiles / Entities</text>
    <text x="20" y="626" class="serif muted" font-size="15">Selected Map</text>
    <rect x="20" y="638" width="260" height="38" rx="8" class="field"/>
    <text x="34" y="663" class="mono text" font-size="12">Inner Shrine</text>
    <text x="20" y="706" class="serif muted" font-size="15">Category + Region</text>
    <rect x="20" y="718" width="122" height="38" rx="8" class="field"/>
    <text x="34" y="743" class="mono text" font-size="12">interior</text>
    <rect x="158" y="718" width="122" height="38" rx="8" class="field"/>
    <text x="172" y="743" class="mono text" font-size="12">Shrine</text>
    <rect x="20" y="780" width="150" height="36" rx="18" class="button"/>
    <text x="38" y="803" class="mono text" font-size="12" font-weight="700">Create Map</text>
  </g>

  <g transform="translate(552,142)">
    <rect x="0" y="0" width="600" height="946" rx="22" class="panel"/>
    <text x="22" y="36" class="mono gold" font-size="13" font-weight="700">MAP WORKSPACE</text>
    <text x="22" y="68" class="serif text" font-size="26" font-weight="700">Terrain, Entities &amp; Local Objects</text>
    <rect x="22" y="94" width="556" height="86" rx="16" fill="#10161d" stroke="#3d4b58"/>
    <g class="serif muted" font-size="15">
      <text x="42" y="126">Layer Mode</text><text x="190" y="126">Tile Brush</text><text x="338" y="126">Place Definition</text>
    </g>
    <g class="mono" font-size="12" font-weight="700">
      <rect x="42" y="138" width="126" height="32" rx="8" class="field"/><text x="54" y="159" class="text">Terrain</text>
      <rect x="190" y="138" width="126" height="32" rx="8" class="field"/><text x="202" y="159" class="text">floor</text>
      <rect x="338" y="138" width="146" height="32" rx="8" class="field"/><text x="350" y="159" class="text">Shrine Wolf</text>
      <rect x="500" y="135" width="62" height="36" rx="18" class="button"/><text x="514" y="158" class="text">Place</text>
    </g>
    <rect x="22" y="202" width="556" height="64" rx="16" fill="#10161d" stroke="#3d4b58"/>
    <rect x="42" y="218" width="36" height="36" rx="8" fill="#8b8f94" stroke="#b7bec5"/>
    <text x="96" y="228" class="serif muted" font-size="15">Active Tool</text>
    <text x="96" y="252" class="mono text" font-size="18" font-weight="700">floor brush</text>

    <g transform="translate(32,300)" class="cellText" text-anchor="middle">
      <g>
        <rect x="0" y="0" width="82" height="64" rx="8" fill="#68737d" stroke="#8895a0"/><text x="41" y="38" class="text">stone</text>
        <rect x="90" y="0" width="82" height="64" rx="8" fill="#68737d" stroke="#8895a0"/><text x="131" y="38" class="text">stone</text>
        <rect x="180" y="0" width="82" height="64" rx="8" fill="#68737d" stroke="#8895a0"/><text x="221" y="38" class="text">stone</text>
        <rect x="270" y="0" width="82" height="64" rx="8" fill="#68737d" stroke="#8895a0"/><text x="311" y="38" class="text">stone</text>
        <rect x="360" y="0" width="82" height="64" rx="8" fill="#68737d" stroke="#8895a0"/><text x="401" y="38" class="text">stone</text>
        <rect x="450" y="0" width="82" height="64" rx="8" fill="#68737d" stroke="#8895a0"/><text x="491" y="38" class="text">stone</text>
      </g>
      <g transform="translate(0,72)">
        <rect x="0" y="0" width="82" height="64" rx="8" fill="#68737d" stroke="#8895a0"/><text x="41" y="38" class="text">stone</text>
        <rect x="90" y="0" width="82" height="64" rx="8" fill="#8b8f94" stroke="#b7bec5"/><text x="131" y="38" fill="#10161d">floor</text>
        <rect x="180" y="0" width="82" height="64" rx="8" fill="#8b8f94" stroke="#b7bec5"/><text x="221" y="38" fill="#10161d">floor</text>
        <rect x="270" y="0" width="82" height="64" rx="8" fill="#8b8f94" stroke="#b7bec5"/><text x="311" y="38" fill="#10161d">floor</text>
        <rect x="360" y="0" width="82" height="64" rx="8" fill="#8b8f94" stroke="#b7bec5"/><text x="401" y="38" fill="#10161d">floor</text>
        <rect x="450" y="0" width="82" height="64" rx="8" fill="#68737d" stroke="#8895a0"/><text x="491" y="38" class="text">stone</text>
      </g>
      <g transform="translate(0,144)">
        <rect x="0" y="0" width="82" height="64" rx="8" fill="#68737d" stroke="#8895a0"/><text x="41" y="38" class="text">stone</text>
        <rect x="90" y="0" width="82" height="64" rx="8" fill="#8b8f94" stroke="#b7bec5"/><text x="131" y="38" fill="#10161d">floor</text>
        <rect x="180" y="0" width="82" height="64" rx="8" fill="#8b8f94" stroke="#b7bec5"/><text x="221" y="38" fill="#10161d">floor</text>
        <rect x="270" y="0" width="82" height="64" rx="8" fill="#8b8f94" stroke="#b7bec5"/><text x="311" y="38" fill="#10161d">floor</text>
        <rect x="360" y="0" width="82" height="64" rx="8" fill="#c4a85a" stroke="#f0d08e"/><text x="401" y="38" fill="#10161d">altar</text>
        <rect x="450" y="0" width="82" height="64" rx="8" fill="#68737d" stroke="#8895a0"/><text x="491" y="38" class="text">stone</text>
      </g>
      <g transform="translate(0,216)">
        <rect x="0" y="0" width="82" height="64" rx="8" fill="#68737d" stroke="#8895a0"/><text x="41" y="38" class="text">stone</text>
        <rect x="90" y="0" width="82" height="64" rx="8" fill="#704b2e" stroke="#b18555"/><text x="131" y="38" class="text">door</text>
        <rect x="180" y="0" width="82" height="64" rx="8" fill="#68737d" stroke="#8895a0"/><text x="221" y="38" class="text">stone</text>
        <rect x="270" y="0" width="82" height="64" rx="8" fill="#68737d" stroke="#8895a0"/><text x="311" y="38" class="text">stone</text>
        <rect x="360" y="0" width="82" height="64" rx="8" fill="#68737d" stroke="#8895a0"/><text x="401" y="38" class="text">stone</text>
        <rect x="450" y="0" width="82" height="64" rx="8" fill="#68737d" stroke="#8895a0"/><text x="491" y="38" class="text">stone</text>
      </g>
    </g>
    <text x="32" y="866" class="serif muted" font-size="18">Selected map workspace keeps terrain, population, exits, and local trigger thinking together.</text>
  </g>

  <g transform="translate(1174,142)">
    <rect x="0" y="0" width="370" height="170" rx="20" class="panel"/>
    <text x="20" y="34" class="mono gold" font-size="13" font-weight="700">DEPENDENCIES</text>
    <text x="20" y="64" class="serif text" font-size="24" font-weight="700">Selected Map Relations</text>
    <g class="mono" font-size="11" font-weight="700">
      <rect x="20" y="88" width="150" height="34" rx="10" class="node"/><text x="34" y="110" class="muted">Region</text>
      <rect x="190" y="88" width="150" height="34" rx="10" class="node"/><text x="204" y="110" class="muted">Tile layer</text>
      <rect x="20" y="130" width="150" height="34" rx="10" class="node"/><text x="34" y="152" class="muted">Entity instances</text>
      <rect x="190" y="130" width="150" height="34" rx="10" class="node"/><text x="204" y="152" class="muted">Triggers + exits</text>
    </g>

    <rect x="0" y="194" width="370" height="264" rx="20" class="panel"/>
    <text x="20" y="228" class="mono gold" font-size="13" font-weight="700">LIBRARIES</text>
    <text x="20" y="258" class="serif text" font-size="24" font-weight="700">Reusable Definition</text>
    <text x="20" y="292" class="serif muted" font-size="15">Entity Definition</text>
    <rect x="20" y="304" width="330" height="36" rx="8" class="field"/><text x="34" y="327" class="mono text" font-size="12">Shrine Wolf</text>
    <text x="20" y="372" class="serif muted" font-size="15">Placement / Behavior</text>
    <rect x="20" y="384" width="154" height="36" rx="8" class="field"/><text x="34" y="407" class="mono text" font-size="12">multiple</text>
    <rect x="196" y="384" width="154" height="36" rx="8" class="field"/><text x="210" y="407" class="mono text" font-size="12">pursue</text>
    <text x="20" y="444" class="serif muted" font-size="15">Profile + starting gear</text>
    <text x="34" y="468" class="mono text" font-size="11">life 6 | power 3 | speed 4</text>
    <text x="34" y="490" class="mono text" font-size="11">skills: tracking, ambush</text>

    <rect x="0" y="482" width="370" height="238" rx="20" class="panel"/>
    <text x="20" y="516" class="mono gold" font-size="13" font-weight="700">LOGIC &amp; QUESTS</text>
    <text x="20" y="546" class="serif text" font-size="24" font-weight="700">No-Code Rule</text>
    <g class="mono" font-size="12" font-weight="700" text-anchor="middle">
      <rect x="20" y="570" width="94" height="34" rx="17" class="button"/><text x="67" y="592" class="text">When</text>
      <rect x="138" y="570" width="94" height="34" rx="17" class="button"/><text x="185" y="592" class="text">If</text>
      <rect x="256" y="570" width="94" height="34" rx="17" class="button"/><text x="303" y="592" class="text">Then</text>
    </g>
    <text x="20" y="638" class="serif muted" font-size="15">Map reference + coordinate</text>
    <rect x="20" y="650" width="330" height="36" rx="8" class="field"/>
    <text x="34" y="673" class="mono text" font-size="12">If: quest_started = true</text>
    <text x="34" y="702" class="mono text" font-size="12">Then: dialogue + item + tile</text>

    <rect x="0" y="744" width="370" height="202" rx="20" class="panel"/>
    <text x="20" y="778" class="mono gold" font-size="13" font-weight="700">TEST &amp; PUBLISH</text>
    <text x="20" y="808" class="serif text" font-size="24" font-weight="700">Draft Health</text>
    <rect x="20" y="832" width="152" height="36" rx="18" class="button"/><text x="42" y="855" class="mono text" font-size="12" font-weight="700">Validate</text>
    <rect x="190" y="832" width="152" height="36" rx="18" class="button"/><text x="214" y="855" class="mono text" font-size="12" font-weight="700">Publish</text>
    <text x="20" y="910" class="serif muted" font-size="15">Validation and release workflow stay</text>
    <text x="20" y="934" class="serif muted" font-size="15">separate from content editing.</text>
  </g>
</svg>