<svg width="1400" height="900" viewBox="0 0 1400 900" fill="none" xmlns="http://www.w3.org/2000/svg">
  <defs>
    <linearGradient id="bg" x1="700" y1="0" x2="700" y2="900" gradientUnits="userSpaceOnUse">
      <stop stop-color="#213140"/>
      <stop offset="0.55" stop-color="#10161D"/>
    </linearGradient>
    <linearGradient id="panel" x1="0" y1="0" x2="0" y2="1">
      <stop stop-color="#1F2A34" stop-opacity="0.95"/>
      <stop offset="1" stop-color="#131A21" stop-opacity="0.98"/>
    </linearGradient>
    <filter id="shadow" x="-20%" y="-20%" width="140%" height="140%">
      <feDropShadow dx="0" dy="18" stdDeviation="26" flood-color="#000000" flood-opacity="0.35"/>
    </filter>
  </defs>
  <rect width="1400" height="900" fill="url(#bg)"/>
  <text x="72" y="78" fill="#F5D547" font-size="18" font-family="Georgia, serif" letter-spacing="4">MILESTONE 6</text>
  <text x="72" y="122" fill="#E9EEF2" font-size="42" font-family="Georgia, serif">ACS Browser Runtime Slice</text>

  <g filter="url(#shadow)">
    <rect x="64" y="164" width="860" height="660" rx="22" fill="url(#panel)" stroke="#324252" stroke-width="2"/>
    <rect x="98" y="198" width="792" height="592" rx="8" fill="#0B0F13" stroke="#64798A" stroke-opacity="0.25" stroke-width="3"/>

    <g transform="translate(110 210)">
      <rect x="0" y="0" width="88" height="88" fill="#497C4C"/>
      <rect x="88" y="0" width="88" height="88" fill="#497C4C"/>
      <rect x="176" y="0" width="88" height="88" fill="#2D5132"/>
      <rect x="264" y="0" width="88" height="88" fill="#497C4C"/>
      <rect x="352" y="0" width="88" height="88" fill="#497C4C"/>
      <rect x="440" y="0" width="88" height="88" fill="#497C4C"/>
      <rect x="528" y="0" width="88" height="88" fill="#497C4C"/>
      <rect x="616" y="0" width="88" height="88" fill="#497C4C"/>

      <rect x="0" y="88" width="88" height="88" fill="#497C4C"/>
      <rect x="88" y="88" width="88" height="88" fill="#A58258"/>
      <rect x="176" y="88" width="88" height="88" fill="#A58258"/>
      <rect x="264" y="88" width="88" height="88" fill="#A58258"/>
      <rect x="352" y="88" width="88" height="88" fill="#497C4C"/>
      <rect x="440" y="88" width="88" height="88" fill="#497C4C"/>
      <rect x="528" y="88" width="88" height="88" fill="#497C4C"/>
      <rect x="616" y="88" width="88" height="88" fill="#497C4C"/>

      <rect x="0" y="176" width="88" height="88" fill="#497C4C"/>
      <rect x="88" y="176" width="88" height="88" fill="#A58258"/>
      <rect x="176" y="176" width="88" height="88" fill="#497C4C"/>
      <rect x="264" y="176" width="88" height="88" fill="#A58258"/>
      <rect x="352" y="176" width="88" height="88" fill="#497C4C"/>
      <rect x="440" y="176" width="88" height="88" fill="#497C4C"/>
      <rect x="528" y="176" width="88" height="88" fill="#497C4C"/>
      <rect x="616" y="176" width="88" height="88" fill="#497C4C"/>

      <rect x="0" y="264" width="88" height="88" fill="#497C4C"/>
      <rect x="88" y="264" width="88" height="88" fill="#A58258"/>
      <rect x="176" y="264" width="88" height="88" fill="#497C4C"/>
      <rect x="264" y="264" width="88" height="88" fill="#A58258"/>
      <rect x="352" y="264" width="88" height="88" fill="#497C4C"/>
      <rect x="440" y="264" width="88" height="88" fill="#497C4C"/>
      <rect x="528" y="264" width="88" height="88" fill="#2D5132"/>
      <rect x="616" y="264" width="88" height="88" fill="#497C4C"/>

      <rect x="0" y="352" width="88" height="88" fill="#497C4C"/>
      <rect x="88" y="352" width="88" height="88" fill="#A58258"/>
      <rect x="176" y="352" width="88" height="88" fill="#497C4C"/>
      <rect x="264" y="352" width="88" height="88" fill="#A58258"/>
      <rect x="352" y="352" width="88" height="88" fill="#A58258"/>
      <rect x="440" y="352" width="88" height="88" fill="#A58258"/>
      <rect x="528" y="352" width="88" height="88" fill="#A58258"/>
      <rect x="616" y="352" width="88" height="88" fill="#497C4C"/>

      <rect x="0" y="440" width="88" height="88" fill="#497C4C"/>
      <rect x="88" y="440" width="88" height="88" fill="#A58258"/>
      <rect x="176" y="440" width="88" height="88" fill="#497C4C"/>
      <rect x="264" y="440" width="88" height="88" fill="#497C4C"/>
      <rect x="352" y="440" width="88" height="88" fill="#497C4C"/>
      <rect x="440" y="440" width="88" height="88" fill="#497C4C"/>
      <rect x="528" y="440" width="88" height="88" fill="#A58258"/>
      <rect x="616" y="440" width="88" height="88" fill="#497C4C"/>

      <rect x="0" y="528" width="88" height="88" fill="#497C4C"/>
      <rect x="88" y="528" width="88" height="88" fill="#A58258"/>
      <rect x="176" y="528" width="88" height="88" fill="#A58258"/>
      <rect x="264" y="528" width="88" height="88" fill="#A58258"/>
      <rect x="352" y="528" width="88" height="88" fill="#A58258"/>
      <rect x="440" y="528" width="88" height="88" fill="#A58258"/>
      <rect x="528" y="528" width="88" height="88" fill="#704B2E"/>
      <rect x="616" y="528" width="88" height="88" fill="#497C4C"/>

      <rect x="0" y="616" width="88" height="88" fill="#497C4C"/>
      <rect x="88" y="616" width="88" height="88" fill="#497C4C"/>
      <rect x="176" y="616" width="88" height="88" fill="#497C4C"/>
      <rect x="264" y="616" width="88" height="88" fill="#497C4C"/>
      <rect x="352" y="616" width="88" height="88" fill="#497C4C"/>
      <rect x="440" y="616" width="88" height="88" fill="#497C4C"/>
      <rect x="528" y="616" width="88" height="88" fill="#497C4C"/>
      <rect x="616" y="616" width="88" height="88" fill="#497C4C"/>

      <g stroke="rgba(255,255,255,0.12)">
        <path d="M88 0V704M176 0V704M264 0V704M352 0V704M440 0V704M528 0V704M616 0V704"/>
        <path d="M0 88H704M0 176H704M0 264H704M0 352H704M0 440H704M0 528H704M0 616H704"/>
      </g>

      <circle cx="484" cy="396" r="28" fill="#BF4B45" stroke="#101418" stroke-width="4"/>
      <circle cx="308" cy="220" r="28" fill="#F3F4F6" stroke="#101418" stroke-width="4"/>
      <rect x="106" y="106" width="68" height="68" rx="6" fill="#F5D547" stroke="#1F1500" stroke-width="4"/>
    </g>
  </g>

  <g filter="url(#shadow)">
    <rect x="956" y="164" width="380" height="660" rx="22" fill="url(#panel)" stroke="#324252" stroke-width="2"/>
    <text x="988" y="212" fill="#E9EEF2" font-size="22" font-family="Georgia, serif">Objective</text>
    <text x="988" y="246" fill="#9FB0BE" font-size="17" font-family="Georgia, serif">Speak to the Oracle, enter the shrine,</text>
    <text x="988" y="271" fill="#9FB0BE" font-size="17" font-family="Georgia, serif">claim the solar seal, and return.</text>

    <text x="988" y="334" fill="#E9EEF2" font-size="22" font-family="Georgia, serif">Controls</text>
    <text x="988" y="368" fill="#9FB0BE" font-size="17" font-family="Cascadia Mono, monospace">WASD / Arrows  move</text>
    <text x="988" y="396" fill="#9FB0BE" font-size="17" font-family="Cascadia Mono, monospace">E               interact</text>
    <text x="988" y="424" fill="#9FB0BE" font-size="17" font-family="Cascadia Mono, monospace">Q               inspect</text>
    <text x="988" y="452" fill="#9FB0BE" font-size="17" font-family="Cascadia Mono, monospace">Enter           continue</text>

    <text x="988" y="520" fill="#E9EEF2" font-size="22" font-family="Georgia, serif">State</text>
    <text x="988" y="554" fill="#9FB0BE" font-size="16" font-family="Georgia, serif">Turn</text>
    <text x="1080" y="554" fill="#E9EEF2" font-size="16" font-family="Cascadia Mono, monospace">4</text>
    <text x="988" y="584" fill="#9FB0BE" font-size="16" font-family="Georgia, serif">Flags</text>
    <text x="1080" y="584" fill="#E9EEF2" font-size="16" font-family="Cascadia Mono, monospace">quest_started: true</text>
    <text x="988" y="614" fill="#9FB0BE" font-size="16" font-family="Georgia, serif">Inventory</text>
    <text x="1080" y="614" fill="#E9EEF2" font-size="16" font-family="Cascadia Mono, monospace">item_solar_seal: 1</text>

    <text x="988" y="686" fill="#E9EEF2" font-size="22" font-family="Georgia, serif">Event Log</text>
    <text x="988" y="720" fill="#9FB0BE" font-size="16" font-family="Georgia, serif">Moved to map_meadow (1, 1).</text>
    <text x="988" y="748" fill="#9FB0BE" font-size="16" font-family="Georgia, serif">Enemy entity_wolf moved to (5, 4).</text>
    <text x="988" y="776" fill="#9FB0BE" font-size="16" font-family="Georgia, serif">Trigger fired: trigger_intro.</text>
  </g>

  <rect x="1038" y="92" width="132" height="42" rx="21" fill="transparent" stroke="rgba(255,255,255,0.24)"/>
  <text x="1065" y="118" fill="#E9EEF2" font-size="16" font-family="Cascadia Mono, monospace">Open Editor</text>
  <text x="1202" y="118" fill="#9FB0BE" font-size="16" font-family="Georgia, serif">Sun Meadow   (1, 1)</text>
</svg>
