<svg width="1400" height="900" viewBox="0 0 1400 900" fill="none" xmlns="http://www.w3.org/2000/svg">
  <defs>
    <linearGradient id="bg2" x1="700" y1="0" x2="700" y2="900" gradientUnits="userSpaceOnUse">
      <stop stop-color="#223243"/>
      <stop offset="0.6" stop-color="#10161D"/>
    </linearGradient>
    <linearGradient id="panel2" x1="0" y1="0" x2="0" y2="1">
      <stop stop-color="#1F2A34" stop-opacity="0.95"/>
      <stop offset="1" stop-color="#141B22" stop-opacity="1"/>
    </linearGradient>
    <filter id="shadow2" x="-20%" y="-20%" width="140%" height="140%">
      <feDropShadow dx="0" dy="18" stdDeviation="24" flood-color="#000" flood-opacity="0.35"/>
    </filter>
  </defs>
  <rect width="1400" height="900" fill="url(#bg2)"/>
  <text x="72" y="76" fill="#F5D547" font-size="18" font-family="Georgia, serif" letter-spacing="4">RUNTIME DETAILS</text>
  <text x="72" y="122" fill="#E9EEF2" font-size="40" font-family="Georgia, serif">Dialogue And Save Controls</text>

  <g filter="url(#shadow2)">
    <rect x="70" y="160" width="820" height="670" rx="22" fill="url(#panel2)" stroke="#324252" stroke-width="2"/>
    <rect x="100" y="190" width="760" height="520" rx="10" fill="#0B0F13" stroke="#4C5E6D" stroke-opacity="0.22" stroke-width="2"/>

    <g transform="translate(120 210)">
      <rect x="0" y="0" width="90" height="90" fill="#68737D"/>
      <rect x="90" y="0" width="90" height="90" fill="#68737D"/>
      <rect x="180" y="0" width="90" height="90" fill="#68737D"/>
      <rect x="270" y="0" width="90" height="90" fill="#68737D"/>
      <rect x="360" y="0" width="90" height="90" fill="#68737D"/>
      <rect x="450" y="0" width="90" height="90" fill="#68737D"/>

      <rect x="0" y="90" width="90" height="90" fill="#68737D"/>
      <rect x="90" y="90" width="90" height="90" fill="#8B8F94"/>
      <rect x="180" y="90" width="90" height="90" fill="#8B8F94"/>
      <rect x="270" y="90" width="90" height="90" fill="#8B8F94"/>
      <rect x="360" y="90" width="90" height="90" fill="#8B8F94"/>
      <rect x="450" y="90" width="90" height="90" fill="#68737D"/>

      <rect x="0" y="180" width="90" height="90" fill="#68737D"/>
      <rect x="90" y="180" width="90" height="90" fill="#8B8F94"/>
      <rect x="180" y="180" width="90" height="90" fill="#8B8F94"/>
      <rect x="270" y="180" width="90" height="90" fill="#8B8F94"/>
      <rect x="360" y="180" width="90" height="90" fill="#E1C66F"/>
      <rect x="450" y="180" width="90" height="90" fill="#68737D"/>

      <rect x="0" y="270" width="90" height="90" fill="#68737D"/>
      <rect x="90" y="270" width="90" height="90" fill="#8B8F94"/>
      <rect x="180" y="270" width="90" height="90" fill="#8B8F94"/>
      <rect x="270" y="270" width="90" height="90" fill="#8B8F94"/>
      <rect x="360" y="270" width="90" height="90" fill="#8B8F94"/>
      <rect x="450" y="270" width="90" height="90" fill="#68737D"/>

      <rect x="0" y="360" width="90" height="90" fill="#68737D"/>
      <rect x="90" y="360" width="90" height="90" fill="#704B2E"/>
      <rect x="180" y="360" width="90" height="90" fill="#68737D"/>
      <rect x="270" y="360" width="90" height="90" fill="#68737D"/>
      <rect x="360" y="360" width="90" height="90" fill="#68737D"/>
      <rect x="450" y="360" width="90" height="90" fill="#68737D"/>

      <g stroke="rgba(255,255,255,0.12)">
        <path d="M90 0V450M180 0V450M270 0V450M360 0V450M450 0V450"/>
        <path d="M0 90H540M0 180H540M0 270H540M0 360H540"/>
      </g>

      <rect x="112" y="292" width="56" height="56" rx="6" fill="#F5D547" stroke="#1F1500" stroke-width="4"/>
    </g>

    <rect x="122" y="612" width="716" height="168" rx="18" fill="rgba(9,11,15,0.96)" stroke="rgba(245,213,71,0.55)"/>
    <text x="150" y="656" fill="#F5D547" font-size="24" font-family="Georgia, serif">Shrine</text>
    <text x="150" y="696" fill="#E9EEF2" font-size="22" font-family="Georgia, serif">The seal lifts free from the altar and settles into your hands.</text>
    <rect x="628" y="718" width="160" height="38" rx="19" fill="transparent" stroke="rgba(245,213,71,0.65)"/>
    <text x="670" y="742" fill="#E9EEF2" font-size="18" font-family="Cascadia Mono, monospace">Continue</text>
  </g>

  <g filter="url(#shadow2)">
    <rect x="934" y="160" width="392" height="670" rx="22" fill="url(#panel2)" stroke="#324252" stroke-width="2"/>
    <text x="966" y="214" fill="#E9EEF2" font-size="22" font-family="Georgia, serif">Save Session</text>
    <rect x="966" y="244" width="84" height="40" rx="20" fill="rgba(245,213,71,0.12)" stroke="rgba(245,213,71,0.65)"/>
    <text x="991" y="269" fill="#E9EEF2" font-size="16" font-family="Cascadia Mono, monospace">Save</text>
    <rect x="1062" y="244" width="84" height="40" rx="20" fill="rgba(245,213,71,0.12)" stroke="rgba(245,213,71,0.65)"/>
    <text x="1087" y="269" fill="#E9EEF2" font-size="16" font-family="Cascadia Mono, monospace">Load</text>
    <rect x="1158" y="244" width="92" height="40" rx="20" fill="transparent" stroke="rgba(255,255,255,0.22)"/>
    <text x="1180" y="269" fill="#E9EEF2" font-size="16" font-family="Cascadia Mono, monospace">Reset</text>
    <text x="966" y="322" fill="#9FB0BE" font-size="16" font-family="Georgia, serif">Saved at 4/13/2026, 8:41 PM.</text>

    <text x="966" y="394" fill="#E9EEF2" font-size="22" font-family="Georgia, serif">State</text>
    <text x="966" y="430" fill="#9FB0BE" font-size="16" font-family="Georgia, serif">Turn</text>
    <text x="1092" y="430" fill="#E9EEF2" font-size="16" font-family="Cascadia Mono, monospace">7</text>
    <text x="966" y="460" fill="#9FB0BE" font-size="16" font-family="Georgia, serif">Flags</text>
    <text x="1092" y="460" fill="#E9EEF2" font-size="16" font-family="Cascadia Mono, monospace">quest_stage: 2</text>
    <text x="966" y="490" fill="#9FB0BE" font-size="16" font-family="Georgia, serif">Inventory</text>
    <text x="1092" y="490" fill="#E9EEF2" font-size="16" font-family="Cascadia Mono, monospace">item_solar_seal: 1</text>

    <text x="966" y="564" fill="#E9EEF2" font-size="22" font-family="Georgia, serif">Event Log</text>
    <text x="966" y="600" fill="#9FB0BE" font-size="16" font-family="Georgia, serif">Dialogue started: dialogue_shrine.</text>
    <text x="966" y="628" fill="#9FB0BE" font-size="16" font-family="Georgia, serif">Received 1 x item_solar_seal.</text>
    <text x="966" y="656" fill="#9FB0BE" font-size="16" font-family="Georgia, serif">Tile changed at map_shrine (4, 2)</text>
    <text x="966" y="684" fill="#9FB0BE" font-size="16" font-family="Georgia, serif">to altar-lit.</text>

    <text x="966" y="748" fill="#F5D547" font-size="18" font-family="Georgia, serif">Guide Focus</text>
    <text x="966" y="780" fill="#9FB0BE" font-size="16" font-family="Georgia, serif">This view highlights the dialogue overlay,</text>
    <text x="966" y="806" fill="#9FB0BE" font-size="16" font-family="Georgia, serif">save controls, and the local status text the</text>
    <text x="966" y="832" fill="#9FB0BE" font-size="16" font-family="Georgia, serif">user guide describes.</text>
  </g>
</svg>
