<?xml version="1.0" encoding="UTF-8"?>
<svg xmlns="http://www.w3.org/2000/svg" width="1100" height="700" viewBox="0 0 1100 700" role="img" aria-labelledby="title desc">
  <title id="title">Step 5 - Tile Library Details</title>
  <desc id="desc">Choose tiles by job, not just by name.</desc>
  <rect width="1100" height="700" fill="#efe4c8"/>
  <rect x="24" y="24" width="1052" height="652" rx="28" fill="#f7f2df" stroke="#3c465c" stroke-width="4"/>
  <text x="58" y="76" fill="#1c1f2a" font-size="34" font-weight="800">Step 5 - Tile Library Details</text>
  <text x="60" y="110" fill="#5d6376" font-size="18" font-weight="500">Choose tiles by job, not just by name.</text>
  <rect x="72" y="150" width="670" height="420" rx="18" fill="#fffdf3" stroke="#3c465c" stroke-width="3"/><text x="95" y="195" fill="#3f79c5" font-size="18" font-weight="800">Tile</text><text x="285" y="195" fill="#3f79c5" font-size="18" font-weight="800">Role</text><text x="505" y="195" fill="#3f79c5" font-size="18" font-weight="800">Runtime Meaning</text><line x1="92" y1="208" x2="710" y2="208" stroke="#d7ceb0" stroke-width="2"/><text x="95" y="230" fill="#1c1f2a" font-size="15" font-weight="500">Aux Terminal</text><text x="285" y="230" fill="#5d6376" font-size="15" font-weight="500">Power switch</text><text x="505" y="230" fill="#5d6376" font-size="15" font-weight="500">Trigger source</text><line x1="92" y1="270" x2="710" y2="270" stroke="#d7ceb0" stroke-width="2"/><text x="95" y="292" fill="#1c1f2a" font-size="15" font-weight="500">Dormant Pad</text><text x="285" y="292" fill="#5d6376" font-size="15" font-weight="500">Tease route</text><text x="505" y="292" fill="#5d6376" font-size="15" font-weight="500">Visible but inactive</text><line x1="92" y1="332" x2="710" y2="332" stroke="#d7ceb0" stroke-width="2"/><text x="95" y="354" fill="#1c1f2a" font-size="15" font-weight="500">Active Pad</text><text x="285" y="354" fill="#5d6376" font-size="15" font-weight="500">Travel gate</text><text x="505" y="354" fill="#5d6376" font-size="15" font-weight="500">Teleport trigger</text><line x1="92" y1="394" x2="710" y2="394" stroke="#d7ceb0" stroke-width="2"/><text x="95" y="416" fill="#1c1f2a" font-size="15" font-weight="500">Core Plinth</text><text x="285" y="416" fill="#5d6376" font-size="15" font-weight="500">Reward site</text><text x="505" y="416" fill="#5d6376" font-size="15" font-weight="500">giveItem source</text><line x1="92" y1="456" x2="710" y2="456" stroke="#d7ceb0" stroke-width="2"/><text x="95" y="478" fill="#1c1f2a" font-size="15" font-weight="500">Relay Panel</text><text x="285" y="478" fill="#5d6376" font-size="15" font-weight="500">World state</text><text x="505" y="478" fill="#5d6376" font-size="15" font-weight="500">changeTile target</text>
</svg>