<?xml version="1.0" encoding="UTF-8"?>
<svg xmlns="http://www.w3.org/2000/svg" width="1100" height="700" viewBox="0 0 1100 700" role="img" aria-labelledby="title desc">
  <title id="title">Step 8 - Quest Object Detail</title>
  <desc id="desc">Use stages as authored checkpoints.</desc>
  <rect width="1100" height="700" fill="#efe4c8"/>
  <rect x="24" y="24" width="1052" height="652" rx="28" fill="#f7f2df" stroke="#3c465c" stroke-width="4"/>
  <text x="58" y="76" fill="#1c1f2a" font-size="34" font-weight="800">Step 8 - Quest Object Detail</text>
  <text x="60" y="110" fill="#5d6376" font-size="18" font-weight="500">Use stages as authored checkpoints.</text>
  <rect x="74" y="205" width="158" height="132" rx="18" fill="#fffdf3" stroke="#3f79c5" stroke-width="4"/>
<text x="96" y="244" fill="#3f79c5" font-size="30" font-weight="900">1</text>
<text x="96" y="282" fill="#1c1f2a" font-size="16" font-weight="500">0: Establish</text><text x="96" y="303" fill="#1c1f2a" font-size="16" font-weight="500">contact</text>
<path d="M 232 270 L 262 270" stroke="#3c465c" stroke-width="4"/><path d="M 262 270 l -12 -8 v 16 z" fill="#3c465c"/><rect x="264" y="205" width="158" height="132" rx="18" fill="#fffdf3" stroke="#d49a38" stroke-width="4"/>
<text x="286" y="244" fill="#d49a38" font-size="30" font-weight="900">2</text>
<text x="286" y="282" fill="#1c1f2a" font-size="16" font-weight="500">1: Restore</text><text x="286" y="303" fill="#1c1f2a" font-size="16" font-weight="500">auxiliary</text><text x="286" y="324" fill="#1c1f2a" font-size="16" font-weight="500">power</text>
<path d="M 422 270 L 452 270" stroke="#3c465c" stroke-width="4"/><path d="M 452 270 l -12 -8 v 16 z" fill="#3c465c"/><rect x="454" y="205" width="158" height="132" rx="18" fill="#fffdf3" stroke="#7d69b4" stroke-width="4"/>
<text x="476" y="244" fill="#7d69b4" font-size="30" font-weight="900">3</text>
<text x="476" y="282" fill="#1c1f2a" font-size="16" font-weight="500">2: Activate</text><text x="476" y="303" fill="#1c1f2a" font-size="16" font-weight="500">transit pad</text>
<path d="M 612 270 L 642 270" stroke="#3c465c" stroke-width="4"/><path d="M 642 270 l -12 -8 v 16 z" fill="#3c465c"/><rect x="644" y="205" width="158" height="132" rx="18" fill="#fffdf3" stroke="#61a65f" stroke-width="4"/>
<text x="666" y="244" fill="#61a65f" font-size="30" font-weight="900">4</text>
<text x="666" y="282" fill="#1c1f2a" font-size="16" font-weight="500">3: Recover</text><text x="666" y="303" fill="#1c1f2a" font-size="16" font-weight="500">data core</text>
<path d="M 802 270 L 832 270" stroke="#3c465c" stroke-width="4"/><path d="M 832 270 l -12 -8 v 16 z" fill="#3c465c"/><rect x="834" y="205" width="158" height="132" rx="18" fill="#fffdf3" stroke="#b85445" stroke-width="4"/>
<text x="856" y="244" fill="#b85445" font-size="30" font-weight="900">5</text>
<text x="856" y="282" fill="#1c1f2a" font-size="16" font-weight="500">4: Report</text><text x="856" y="303" fill="#1c1f2a" font-size="16" font-weight="500">relay restored</text>
<rect x="80" y="421" width="328" height="70" rx="14" fill="#fff9e8" stroke="#d7ceb0" stroke-width="2"/>
<text x="98" y="449" fill="#d49a38" font-size="14" font-weight="800">Note 1</text>
<text x="98" y="475" fill="#1c1f2a" font-size="15" font-weight="500">Every stage has a visible</text><text x="98" y="495" fill="#1c1f2a" font-size="15" font-weight="500">in-world reason.</text><rect x="80" y="507" width="328" height="70" rx="14" fill="#fff9e8" stroke="#d7ceb0" stroke-width="2"/>
<text x="98" y="535" fill="#d49a38" font-size="14" font-weight="800">Note 2</text>
<text x="98" y="561" fill="#1c1f2a" font-size="15" font-weight="500">Avoid duplicate objectives by</text><text x="98" y="581" fill="#1c1f2a" font-size="15" font-weight="500">reusing the quest object.</text>
</svg>