<?xml version="1.0" encoding="UTF-8"?>
<svg xmlns="http://www.w3.org/2000/svg" width="1100" height="700" viewBox="0 0 1100 700" role="img" aria-labelledby="title desc">
  <title id="title">Step 16 - Playtest Scenarios</title>
  <desc id="desc">Diagnostics tell you what to test before publishing.</desc>
  <rect width="1100" height="700" fill="#efe4c8"/>
  <rect x="24" y="24" width="1052" height="652" rx="28" fill="#f7f2df" stroke="#3c465c" stroke-width="4"/>
  <text x="58" y="76" fill="#1c1f2a" font-size="34" font-weight="800">Step 16 - Playtest Scenarios</text>
  <text x="60" y="110" fill="#5d6376" font-size="18" font-weight="500">Diagnostics tell you what to test before publishing.</text>
  <rect x="72" y="150" width="670" height="420" rx="18" fill="#fffdf3" stroke="#3c465c" stroke-width="3"/><text x="95" y="195" fill="#3f79c5" font-size="18" font-weight="800">Scenario</text><text x="285" y="195" fill="#3f79c5" font-size="18" font-weight="800">What To Verify</text><text x="505" y="195" fill="#3f79c5" font-size="18" font-weight="800">Likely Fix</text><line x1="92" y1="208" x2="710" y2="208" stroke="#d7ceb0" stroke-width="2"/><text x="95" y="230" fill="#1c1f2a" font-size="15" font-weight="500">Start</text><text x="285" y="230" fill="#5d6376" font-size="15" font-weight="500">Player begins on</text><text x="285" y="248" fill="#5d6376" font-size="15" font-weight="500">Access Ring</text><text x="505" y="230" fill="#5d6376" font-size="15" font-weight="500">Check start map/id</text><line x1="92" y1="270" x2="710" y2="270" stroke="#d7ceb0" stroke-width="2"/><text x="95" y="292" fill="#1c1f2a" font-size="15" font-weight="500">AI trigger</text><text x="285" y="292" fill="#5d6376" font-size="15" font-weight="500">Flag and quest stage</text><text x="285" y="310" fill="#5d6376" font-size="15" font-weight="500">advance</text><text x="505" y="292" fill="#5d6376" font-size="15" font-weight="500">Check trigger action</text><text x="505" y="310" fill="#5d6376" font-size="15" font-weight="500">ids</text><line x1="92" y1="332" x2="710" y2="332" stroke="#d7ceb0" stroke-width="2"/><text x="95" y="354" fill="#1c1f2a" font-size="15" font-weight="500">Terminal</text><text x="285" y="354" fill="#5d6376" font-size="15" font-weight="500">Pad tile changes</text><text x="505" y="354" fill="#5d6376" font-size="15" font-weight="500">Check changeTile</text><text x="505" y="372" fill="#5d6376" font-size="15" font-weight="500">target</text><line x1="92" y1="394" x2="710" y2="394" stroke="#d7ceb0" stroke-width="2"/><text x="95" y="416" fill="#1c1f2a" font-size="15" font-weight="500">Teleport</text><text x="285" y="416" fill="#5d6376" font-size="15" font-weight="500">Player arrives in core</text><text x="285" y="434" fill="#5d6376" font-size="15" font-weight="500">map</text><text x="505" y="416" fill="#5d6376" font-size="15" font-weight="500">Check map id and</text><text x="505" y="434" fill="#5d6376" font-size="15" font-weight="500">coordinates</text><line x1="92" y1="456" x2="710" y2="456" stroke="#d7ceb0" stroke-width="2"/><text x="95" y="478" fill="#1c1f2a" font-size="15" font-weight="500">Completion</text><text x="285" y="478" fill="#5d6376" font-size="15" font-weight="500">relay_restored is set</text><text x="505" y="478" fill="#5d6376" font-size="15" font-weight="500">Check final conditions</text>
</svg>