<?xml version="1.0" encoding="UTF-8"?>
<svg xmlns="http://www.w3.org/2000/svg" width="1100" height="700" viewBox="0 0 1100 700" role="img" aria-labelledby="title desc">
  <title id="title">Step 6 - Item And Pixel Asset Detail</title>
  <desc id="desc">Items and visual assets are separate, linked objects.</desc>
  <rect width="1100" height="700" fill="#efe4c8"/>
  <rect x="24" y="24" width="1052" height="652" rx="28" fill="#f7f2df" stroke="#3c465c" stroke-width="4"/>
  <text x="58" y="76" fill="#1c1f2a" font-size="34" font-weight="800">Step 6 - Item And Pixel Asset Detail</text>
  <text x="60" y="110" fill="#5d6376" font-size="18" font-weight="500">Items and visual assets are separate, linked objects.</text>
  <rect x="92" y="160" width="320" height="320" rx="14" fill="#fdf8e6" stroke="#3c465c" stroke-width="3"/><rect x="116" y="184" width="32" height="32" fill="#f4e9c8" stroke="#d7ceb0"/><rect x="150" y="184" width="32" height="32" fill="#f4e9c8" stroke="#d7ceb0"/><rect x="184" y="184" width="32" height="32" fill="#f4e9c8" stroke="#d7ceb0"/><rect x="218" y="184" width="32" height="32" fill="#f4e9c8" stroke="#d7ceb0"/><rect x="252" y="184" width="32" height="32" fill="#f4e9c8" stroke="#d7ceb0"/><rect x="286" y="184" width="32" height="32" fill="#f4e9c8" stroke="#d7ceb0"/><rect x="320" y="184" width="32" height="32" fill="#f4e9c8" stroke="#d7ceb0"/><rect x="354" y="184" width="32" height="32" fill="#f4e9c8" stroke="#d7ceb0"/><rect x="116" y="218" width="32" height="32" fill="#f4e9c8" stroke="#d7ceb0"/><rect x="150" y="218" width="32" height="32" fill="#f4e9c8" stroke="#d7ceb0"/><rect x="184" y="218" width="32" height="32" fill="#f4e9c8" stroke="#d7ceb0"/><rect x="218" y="218" width="32" height="32" fill="#6ad2d8" stroke="#d7ceb0"/><rect x="252" y="218" width="32" height="32" fill="#6ad2d8" stroke="#d7ceb0"/><rect x="286" y="218" width="32" height="32" fill="#f4e9c8" stroke="#d7ceb0"/><rect x="320" y="218" width="32" height="32" fill="#f4e9c8" stroke="#d7ceb0"/><rect x="354" y="218" width="32" height="32" fill="#f4e9c8" stroke="#d7ceb0"/><rect x="116" y="252" width="32" height="32" fill="#f4e9c8" stroke="#d7ceb0"/><rect x="150" y="252" width="32" height="32" fill="#f4e9c8" stroke="#d7ceb0"/><rect x="184" y="252" width="32" height="32" fill="#6ad2d8" stroke="#d7ceb0"/><rect x="218" y="252" width="32" height="32" fill="#f4e9c8" stroke="#d7ceb0"/><rect x="252" y="252" width="32" height="32" fill="#f4e9c8" stroke="#d7ceb0"/><rect x="286" y="252" width="32" height="32" fill="#6ad2d8" stroke="#d7ceb0"/><rect x="320" y="252" width="32" height="32" fill="#f4e9c8" stroke="#d7ceb0"/><rect x="354" y="252" width="32" height="32" fill="#f4e9c8" stroke="#d7ceb0"/><rect x="116" y="286" width="32" height="32" fill="#f4e9c8" stroke="#d7ceb0"/><rect x="150" y="286" width="32" height="32" fill="#6ad2d8" stroke="#d7ceb0"/><rect x="184" y="286" width="32" height="32" fill="#f4e9c8" stroke="#d7ceb0"/><rect x="218" y="286" width="32" height="32" fill="#f4e9c8" stroke="#d7ceb0"/><rect x="252" y="286" width="32" height="32" fill="#f4e9c8" stroke="#d7ceb0"/><rect x="286" y="286" width="32" height="32" fill="#f4e9c8" stroke="#d7ceb0"/><rect x="320" y="286" width="32" height="32" fill="#6ad2d8" stroke="#d7ceb0"/><rect x="354" y="286" width="32" height="32" fill="#f4e9c8" stroke="#d7ceb0"/><rect x="116" y="320" width="32" height="32" fill="#f4e9c8" stroke="#d7ceb0"/><rect x="150" y="320" width="32" height="32" fill="#f4e9c8" stroke="#d7ceb0"/><rect x="184" y="320" width="32" height="32" fill="#6ad2d8" stroke="#d7ceb0"/><rect x="218" y="320" width="32" height="32" fill="#f4e9c8" stroke="#d7ceb0"/><rect x="252" y="320" width="32" height="32" fill="#f4e9c8" stroke="#d7ceb0"/><rect x="286" y="320" width="32" height="32" fill="#6ad2d8" stroke="#d7ceb0"/><rect x="320" y="320" width="32" height="32" fill="#f4e9c8" stroke="#d7ceb0"/><rect x="354" y="320" width="32" height="32" fill="#f4e9c8" stroke="#d7ceb0"/><rect x="116" y="354" width="32" height="32" fill="#f4e9c8" stroke="#d7ceb0"/><rect x="150" y="354" width="32" height="32" fill="#f4e9c8" stroke="#d7ceb0"/><rect x="184" y="354" width="32" height="32" fill="#f4e9c8" stroke="#d7ceb0"/><rect x="218" y="354" width="32" height="32" fill="#6ad2d8" stroke="#d7ceb0"/><rect x="252" y="354" width="32" height="32" fill="#6ad2d8" stroke="#d7ceb0"/><rect x="286" y="354" width="32" height="32" fill="#f4e9c8" stroke="#d7ceb0"/><rect x="320" y="354" width="32" height="32" fill="#f4e9c8" stroke="#d7ceb0"/><rect x="354" y="354" width="32" height="32" fill="#f4e9c8" stroke="#d7ceb0"/><rect x="116" y="388" width="32" height="32" fill="#f4e9c8" stroke="#d7ceb0"/><rect x="150" y="388" width="32" height="32" fill="#f4e9c8" stroke="#d7ceb0"/><rect x="184" y="388" width="32" height="32" fill="#6ad2d8" stroke="#d7ceb0"/><rect x="218" y="388" width="32" height="32" fill="#f4e9c8" stroke="#d7ceb0"/><rect x="252" y="388" width="32" height="32" fill="#f4e9c8" stroke="#d7ceb0"/><rect x="286" y="388" width="32" height="32" fill="#6ad2d8" stroke="#d7ceb0"/><rect x="320" y="388" width="32" height="32" fill="#f4e9c8" stroke="#d7ceb0"/><rect x="354" y="388" width="32" height="32" fill="#f4e9c8" stroke="#d7ceb0"/><rect x="116" y="422" width="32" height="32" fill="#f4e9c8" stroke="#d7ceb0"/><rect x="150" y="422" width="32" height="32" fill="#f4e9c8" stroke="#d7ceb0"/><rect x="184" y="422" width="32" height="32" fill="#f4e9c8" stroke="#d7ceb0"/><rect x="218" y="422" width="32" height="32" fill="#f4e9c8" stroke="#d7ceb0"/><rect x="252" y="422" width="32" height="32" fill="#f4e9c8" stroke="#d7ceb0"/><rect x="286" y="422" width="32" height="32" fill="#f4e9c8" stroke="#d7ceb0"/><rect x="320" y="422" width="32" height="32" fill="#f4e9c8" stroke="#d7ceb0"/><rect x="354" y="422" width="32" height="32" fill="#f4e9c8" stroke="#d7ceb0"/><rect x="470" y="186" width="110" height="110" rx="10" fill="#253047" stroke="#3c465c" stroke-width="3"/>
<rect x="508" y="205" width="34" height="34" fill="#6ad2d8"/>
<rect x="492" y="240" width="68" height="34" fill="#6ad2d8" opacity="0.75"/>
<text x="474" y="324" fill="#5d6376" font-size="17" font-weight="700">Live small preview</text><rect x="650" y="156" width="328" height="70" rx="14" fill="#fff9e8" stroke="#d7ceb0" stroke-width="2"/>
<text x="668" y="184" fill="#d49a38" font-size="14" font-weight="800">Note 1</text>
<text x="668" y="210" fill="#1c1f2a" font-size="15" font-weight="500">Data Core item: inventory</text><text x="668" y="230" fill="#1c1f2a" font-size="15" font-weight="500">object</text><rect x="650" y="242" width="328" height="70" rx="14" fill="#fff9e8" stroke="#d7ceb0" stroke-width="2"/>
<text x="668" y="270" fill="#d49a38" font-size="14" font-weight="800">Note 2</text>
<text x="668" y="296" fill="#1c1f2a" font-size="15" font-weight="500">Data Core sprite: visual</text><text x="668" y="316" fill="#1c1f2a" font-size="15" font-weight="500">presentation</text><rect x="650" y="328" width="328" height="70" rx="14" fill="#fff9e8" stroke="#d7ceb0" stroke-width="2"/>
<text x="668" y="356" fill="#d49a38" font-size="14" font-weight="800">Note 3</text>
<text x="668" y="382" fill="#1c1f2a" font-size="15" font-weight="500">Access Cipher: optional gate</text><text x="668" y="402" fill="#1c1f2a" font-size="15" font-weight="500">item</text><rect x="650" y="414" width="328" height="70" rx="14" fill="#fff9e8" stroke="#d7ceb0" stroke-width="2"/>
<text x="668" y="442" fill="#d49a38" font-size="14" font-weight="800">Note 4</text>
<text x="668" y="468" fill="#1c1f2a" font-size="15" font-weight="500">Relay Charge: optional power</text><text x="668" y="488" fill="#1c1f2a" font-size="15" font-weight="500">reward</text>
</svg>