<?xml version="1.0" encoding="UTF-8"?>
<svg xmlns="http://www.w3.org/2000/svg" width="1100" height="700" viewBox="0 0 1100 700" role="img" aria-labelledby="title desc">
  <title id="title">Step 7 - Cast Placement</title>
  <desc id="desc">Place roles where their behavior teaches the player.</desc>
  <rect width="1100" height="700" fill="#efe4c8"/>
  <rect x="24" y="24" width="1052" height="652" rx="28" fill="#f7f2df" stroke="#3c465c" stroke-width="4"/>
  <text x="58" y="76" fill="#1c1f2a" font-size="34" font-weight="800">Step 7 - Cast Placement</text>
  <text x="60" y="110" fill="#5d6376" font-size="18" font-weight="500">Place roles where their behavior teaches the player.</text>
  <rect x="80" y="155" width="468" height="416" fill="#253047" stroke="#3c465c" stroke-width="4"/><rect x="80" y="155" width="50" height="50" fill="#58606f" stroke="#30364a" stroke-width="1"/><rect x="132" y="155" width="50" height="50" fill="#58606f" stroke="#30364a" stroke-width="1"/><rect x="184" y="155" width="50" height="50" fill="#58606f" stroke="#30364a" stroke-width="1"/><rect x="236" y="155" width="50" height="50" fill="#58606f" stroke="#30364a" stroke-width="1"/><rect x="288" y="155" width="50" height="50" fill="#58606f" stroke="#30364a" stroke-width="1"/><rect x="340" y="155" width="50" height="50" fill="#58606f" stroke="#30364a" stroke-width="1"/><rect x="392" y="155" width="50" height="50" fill="#58606f" stroke="#30364a" stroke-width="1"/><rect x="444" y="155" width="50" height="50" fill="#58606f" stroke="#30364a" stroke-width="1"/><rect x="496" y="155" width="50" height="50" fill="#58606f" stroke="#30364a" stroke-width="1"/><rect x="80" y="207" width="50" height="50" fill="#58606f" stroke="#30364a" stroke-width="1"/><rect x="132" y="207" width="50" height="50" fill="#d4c07d" stroke="#30364a" stroke-width="1"/><rect x="184" y="207" width="50" height="50" fill="#d4c07d" stroke="#30364a" stroke-width="1"/><rect x="236" y="207" width="50" height="50" fill="#d4c07d" stroke="#30364a" stroke-width="1"/><rect x="288" y="207" width="50" height="50" fill="#d4c07d" stroke="#30364a" stroke-width="1"/><rect x="340" y="207" width="50" height="50" fill="#d4c07d" stroke="#30364a" stroke-width="1"/><rect x="392" y="207" width="50" height="50" fill="#d4c07d" stroke="#30364a" stroke-width="1"/><rect x="444" y="207" width="50" height="50" fill="#d4c07d" stroke="#30364a" stroke-width="1"/><rect x="496" y="207" width="50" height="50" fill="#58606f" stroke="#30364a" stroke-width="1"/><rect x="80" y="259" width="50" height="50" fill="#58606f" stroke="#30364a" stroke-width="1"/><rect x="132" y="259" width="50" height="50" fill="#d4c07d" stroke="#30364a" stroke-width="1"/><rect x="184" y="259" width="50" height="50" fill="#d4c07d" stroke="#30364a" stroke-width="1"/><rect x="236" y="259" width="50" height="50" fill="#d4c07d" stroke="#30364a" stroke-width="1"/><rect x="288" y="259" width="50" height="50" fill="#d4c07d" stroke="#30364a" stroke-width="1"/><rect x="340" y="259" width="50" height="50" fill="#58606f" stroke="#30364a" stroke-width="1"/><rect x="392" y="259" width="50" height="50" fill="#d4c07d" stroke="#30364a" stroke-width="1"/><rect x="444" y="259" width="50" height="50" fill="#d4c07d" stroke="#30364a" stroke-width="1"/><rect x="496" y="259" width="50" height="50" fill="#58606f" stroke="#30364a" stroke-width="1"/><rect x="80" y="311" width="50" height="50" fill="#58606f" stroke="#30364a" stroke-width="1"/><rect x="132" y="311" width="50" height="50" fill="#d4c07d" stroke="#30364a" stroke-width="1"/><rect x="184" y="311" width="50" height="50" fill="#d4c07d" stroke="#30364a" stroke-width="1"/><rect x="236" y="311" width="50" height="50" fill="#d4c07d" stroke="#30364a" stroke-width="1"/><rect x="288" y="311" width="50" height="50" fill="#d4c07d" stroke="#30364a" stroke-width="1"/><rect x="340" y="311" width="50" height="50" fill="#58606f" stroke="#30364a" stroke-width="1"/><rect x="392" y="311" width="50" height="50" fill="#d4c07d" stroke="#30364a" stroke-width="1"/><rect x="444" y="311" width="50" height="50" fill="#d4c07d" stroke="#30364a" stroke-width="1"/><rect x="496" y="311" width="50" height="50" fill="#58606f" stroke="#30364a" stroke-width="1"/><rect x="80" y="363" width="50" height="50" fill="#58606f" stroke="#30364a" stroke-width="1"/><rect x="132" y="363" width="50" height="50" fill="#d4c07d" stroke="#30364a" stroke-width="1"/><rect x="184" y="363" width="50" height="50" fill="#d4c07d" stroke="#30364a" stroke-width="1"/><rect x="236" y="363" width="50" height="50" fill="#d4c07d" stroke="#30364a" stroke-width="1"/><rect x="288" y="363" width="50" height="50" fill="#d4c07d" stroke="#30364a" stroke-width="1"/><rect x="340" y="363" width="50" height="50" fill="#58606f" stroke="#30364a" stroke-width="1"/><rect x="392" y="363" width="50" height="50" fill="#d4c07d" stroke="#30364a" stroke-width="1"/><rect x="444" y="363" width="50" height="50" fill="#d4c07d" stroke="#30364a" stroke-width="1"/><rect x="496" y="363" width="50" height="50" fill="#58606f" stroke="#30364a" stroke-width="1"/><rect x="80" y="415" width="50" height="50" fill="#58606f" stroke="#30364a" stroke-width="1"/><rect x="132" y="415" width="50" height="50" fill="#d4c07d" stroke="#30364a" stroke-width="1"/><rect x="184" y="415" width="50" height="50" fill="#d4c07d" stroke="#30364a" stroke-width="1"/><rect x="236" y="415" width="50" height="50" fill="#d4c07d" stroke="#30364a" stroke-width="1"/><rect x="288" y="415" width="50" height="50" fill="#d4c07d" stroke="#30364a" stroke-width="1"/><rect x="340" y="415" width="50" height="50" fill="#58606f" stroke="#30364a" stroke-width="1"/><rect x="392" y="415" width="50" height="50" fill="#d4c07d" stroke="#30364a" stroke-width="1"/><rect x="444" y="415" width="50" height="50" fill="#d4c07d" stroke="#30364a" stroke-width="1"/><rect x="496" y="415" width="50" height="50" fill="#58606f" stroke="#30364a" stroke-width="1"/><rect x="80" y="467" width="50" height="50" fill="#58606f" stroke="#30364a" stroke-width="1"/><rect x="132" y="467" width="50" height="50" fill="#d4c07d" stroke="#30364a" stroke-width="1"/><rect x="184" y="467" width="50" height="50" fill="#d4c07d" stroke="#30364a" stroke-width="1"/><rect x="236" y="467" width="50" height="50" fill="#d4c07d" stroke="#30364a" stroke-width="1"/><rect x="288" y="467" width="50" height="50" fill="#d4c07d" stroke="#30364a" stroke-width="1"/><rect x="340" y="467" width="50" height="50" fill="#d4c07d" stroke="#30364a" stroke-width="1"/><rect x="392" y="467" width="50" height="50" fill="#d4c07d" stroke="#30364a" stroke-width="1"/><rect x="444" y="467" width="50" height="50" fill="#d4c07d" stroke="#30364a" stroke-width="1"/><rect x="496" y="467" width="50" height="50" fill="#58606f" stroke="#30364a" stroke-width="1"/><rect x="80" y="519" width="50" height="50" fill="#58606f" stroke="#30364a" stroke-width="1"/><rect x="132" y="519" width="50" height="50" fill="#58606f" stroke="#30364a" stroke-width="1"/><rect x="184" y="519" width="50" height="50" fill="#58606f" stroke="#30364a" stroke-width="1"/><rect x="236" y="519" width="50" height="50" fill="#58606f" stroke="#30364a" stroke-width="1"/><rect x="288" y="519" width="50" height="50" fill="#58606f" stroke="#30364a" stroke-width="1"/><rect x="340" y="519" width="50" height="50" fill="#58606f" stroke="#30364a" stroke-width="1"/><rect x="392" y="519" width="50" height="50" fill="#58606f" stroke="#30364a" stroke-width="1"/><rect x="444" y="519" width="50" height="50" fill="#58606f" stroke="#30364a" stroke-width="1"/><rect x="496" y="519" width="50" height="50" fill="#58606f" stroke="#30364a" stroke-width="1"/><rect x="136" y="219" width="42" height="28" rx="8" fill="#3f79c5" opacity="0.92"/>
<text x="141" y="240" fill="#ffffff" font-size="14" font-weight="900">AI</text><rect x="240" y="271" width="42" height="28" rx="8" fill="#3f79c5" opacity="0.92"/>
<text x="245" y="292" fill="#ffffff" font-size="11" font-weight="900">PLAYER</text><rect x="396" y="323" width="42" height="28" rx="8" fill="#3f79c5" opacity="0.92"/>
<text x="401" y="344" fill="#ffffff" font-size="14" font-weight="900">DRONE</text><rect x="448" y="375" width="42" height="28" rx="8" fill="#3f79c5" opacity="0.92"/>
<text x="453" y="396" fill="#ffffff" font-size="14" font-weight="900">PAD</text><rect x="625" y="151" width="328" height="70" rx="14" fill="#fff9e8" stroke="#d7ceb0" stroke-width="2"/>
<text x="643" y="179" fill="#d49a38" font-size="14" font-weight="800">Note 1</text>
<text x="643" y="205" fill="#1c1f2a" font-size="15" font-weight="500">The AI is near the start</text><rect x="625" y="237" width="328" height="70" rx="14" fill="#fff9e8" stroke="#d7ceb0" stroke-width="2"/>
<text x="643" y="265" fill="#d49a38" font-size="14" font-weight="800">Note 2</text>
<text x="643" y="291" fill="#1c1f2a" font-size="15" font-weight="500">The drone guards the pad route</text><rect x="625" y="323" width="328" height="70" rx="14" fill="#fff9e8" stroke="#d7ceb0" stroke-width="2"/>
<text x="643" y="351" fill="#d49a38" font-size="14" font-weight="800">Note 3</text>
<text x="643" y="377" fill="#1c1f2a" font-size="15" font-weight="500">Do not place enemies so they</text><text x="643" y="397" fill="#1c1f2a" font-size="15" font-weight="500">pin the player forever</text>
</svg>