<?xml version="1.0" encoding="UTF-8"?>
<svg xmlns="http://www.w3.org/2000/svg" width="1100" height="700" viewBox="0 0 1100 700" role="img" aria-labelledby="title desc">
  <title id="title">Step 12 - Teleport Travel Model</title>
  <desc id="desc">Teleport is an authored action; exits are normal map links.</desc>
  <rect width="1100" height="700" fill="#efe4c8"/>
  <rect x="24" y="24" width="1052" height="652" rx="28" fill="#f7f2df" stroke="#3c465c" stroke-width="4"/>
  <text x="58" y="76" fill="#1c1f2a" font-size="34" font-weight="800">Step 12 - Teleport Travel Model</text>
  <text x="60" y="110" fill="#5d6376" font-size="18" font-weight="500">Teleport is an authored action; exits are normal map links.</text>
  <rect x="80" y="190" width="240" height="150" rx="20" fill="#fffdf3" stroke="#3f79c5" stroke-width="4"/>
<text x="102" y="232" fill="#1c1f2a" font-size="22" font-weight="800">Access Ring</text>
<text x="102" y="270" fill="#5d6376" font-size="16" font-weight="500">Active transit pad at</text><text x="102" y="292" fill="#5d6376" font-size="16" font-weight="500">x7 y4</text>
<path d="M 320 265 C 350 235 380 235 400 265" fill="none" stroke="#3c465c" stroke-width="4"/><path d="M 400 265 l -12 -7 v 14 z" fill="#3c465c"/><rect x="370" y="190" width="240" height="150" rx="20" fill="#fffdf3" stroke="#61a65f" stroke-width="4"/>
<text x="392" y="232" fill="#1c1f2a" font-size="22" font-weight="800">Data Core Chamber</text>
<text x="392" y="270" fill="#5d6376" font-size="16" font-weight="500">Arrival at x2 y2</text>
<rect x="110" y="421" width="328" height="70" rx="14" fill="#fff9e8" stroke="#d7ceb0" stroke-width="2"/>
<text x="128" y="449" fill="#d49a38" font-size="14" font-weight="800">Note 1</text>
<text x="128" y="475" fill="#1c1f2a" font-size="15" font-weight="500">Condition:</text><text x="128" y="495" fill="#1c1f2a" font-size="15" font-weight="500">auxiliary_power_online</text><rect x="110" y="507" width="328" height="70" rx="14" fill="#fff9e8" stroke="#d7ceb0" stroke-width="2"/>
<text x="128" y="535" fill="#d49a38" font-size="14" font-weight="800">Note 2</text>
<text x="128" y="561" fill="#1c1f2a" font-size="15" font-weight="500">Action: teleport to Data Core</text><text x="128" y="581" fill="#1c1f2a" font-size="15" font-weight="500">Chamber</text><rect x="110" y="593" width="328" height="70" rx="14" fill="#fff9e8" stroke="#d7ceb0" stroke-width="2"/>
<text x="128" y="621" fill="#d49a38" font-size="14" font-weight="800">Note 3</text>
<text x="128" y="647" fill="#1c1f2a" font-size="15" font-weight="500">Follow-up: set used_transit_pad</text><text x="128" y="667" fill="#1c1f2a" font-size="15" font-weight="500">and quest stage 3</text>
</svg>